<?xml version="1.0" encoding="UTF-8"?>
<svg version="1.1" viewBox="0 0 1600 800" width="1200" height="600" xmlns="http://www.w3.org/2000/svg">
<path transform="translate(0)" d="m0 0h1600v800h-1600v-800z" fill="none"/>
<path transform="translate(745,20)" d="m0 0c9.63 4.72 15.6 15 20.9 23.9 5.33 8.85 10.2 14.6 19.1 20.1 0.949 0.598 1.9 1.2 2.88 1.81 15.5 5.9 37.8 4.93 53.1-1.81 1.6-0.498 3.2-0.977 4.81-1.44 5.46-1.62 10.7-3.58 16-5.69 6.11-2.4 12.2-4.63 18.5-6.62 0.645-0.211 1.29-0.421 1.96-0.638 7.54-2.36 14.9-2.79 22.7-2.8 0.755-0.0122 1.51-0.0245 2.29-0.0371 5.82-0.015 11.9 0.173 16.8 3.74 0.455 0.572 0.91 1.14 1.38 1.73 0.473 0.562 0.946 1.12 1.43 1.7 1.52 2.76 1.94 4.89 2.13 8.05-0.996 3.21-0.996 3.21-2.44 6.38-0.71 1.59-0.71 1.59-1.43 3.21-0.373 0.797-0.745 1.59-1.13 2.41h-2c-0.268 0.804-0.536 1.61-0.812 2.44-0.392 0.846-0.784 1.69-1.19 2.56-1.48 0.495-1.48 0.495-3 1-0.33 0.66-0.66 1.32-1 2-0.33 0.66-0.66 1.32-1 2l-3 1c-0.309 0.66-0.619 1.32-0.938 2-0.351 0.66-0.701 1.32-1.06 2-1.33 0.362-2.66 0.697-4 1-0.33 0.99-0.66 1.98-1 3-1.32 0.702-2.65 1.37-4 2-1 0.997-2 2-3 3-2.78 2.31-5.59 4.57-8.41 6.84-2.52 2.02-2.52 2.02-4.31 3.94-1.28 1.22-1.28 1.22-3.28 1.22-0.262 0.566-0.523 1.13-0.793 1.71-1.31 2.48-2.85 4.6-4.52 6.85-5.72 8.19-9.77 15.7-9.37 26 1.74 8.87 7.01 17.2 13.2 23.7 6.85 7.89 10.9 15.8 10.9 26.2 0.0245 0.738 0.049 1.48 0.0742 2.24 0.0278 5.21-0.708 8.42-4.45 12.3-7.19 4.39-14.3 4.45-22.5 4.12-10.5-0.343-20.8-0.627-29.5 5.88-8.82 9.93-7.34 24.6-7.46 37-0.123 11.6-0.896 22.6-7.04 32.7-0.588 0.994-1.18 1.99-1.78 3.01-1.72 2.3-1.72 2.3-4.72 3.3-0.33 0.99-0.66 1.98-1 3-7.91 6.51-17.1 8.44-27.2 7.94-7.73-1.05-14.3-5.57-19.8-10.9-4.92-6.55-7.88-14.1-10.8-21.7-4.21-10.5-9.05-19.7-16.1-28.6-2.1-2.67-2.1-2.67-3.52-4.84-8.27-12.7-25.5-20.8-39.6-24.8-3.16-0.586-6.33-0.929-9.53-1.25-1.8-0.2-3.6-0.4-5.39-0.6-2.79-0.299-5.58-0.593-8.37-0.881-2.73-0.285-5.45-0.589-8.17-0.894-0.822-0.0793-1.64-0.159-2.49-0.24-11.1-1.26-21.8-6.67-28.8-15.4-4.8-6.52-5.74-11.7-5.25-19.7 1.34-8.18 6.43-15.4 13-20.3 1.33-0.905 2.66-1.8 4-2.69 1.19-0.895 2.38-1.79 3.56-2.69 3.3-2.33 6.66-3.84 10.4-5.31 1.63-0.644 3.25-1.29 4.88-1.94 0.843-0.334 1.69-0.668 2.55-1.01 3.3-1.35 6.53-2.82 9.76-4.32 1.81-0.734 1.81-0.734 3.81-0.734v-2c0.846-0.392 1.69-0.784 2.56-1.19 11.8-6.2 20.8-17.3 25.4-29.8 3.13-10.6 3.99-21 4.21-32 0.0144-0.704 0.0288-1.41 0.0436-2.13 0.0572-2.92 0.112-5.84 0.147-8.76 0.195-15.2 0.195-15.2 3.6-22.1 0.617-1.27 0.617-1.27 1.25-2.57 6.21-11 14-19.3 27.8-16.4z" fill="#000000"/>
<path transform="translate(1098 270)" d="m0 0c0.534 0.44 1.07 0.879 1.62 1.33v2c0.557 0.248 1.11 0.495 1.69 0.75 6.78 3.66 11.7 9.67 16.2 15.8 2.67 3.06 5.73 5.31 8.96 7.75 2.6 2.03 4.83 4.36 7.16 6.69 10.3 8.93 21.4 12.8 35 12 8.75-1.16 20-4.98 26.4-11.4 2.16-2.15 4.55-3.84 7.02-5.63 1.4-1.02 1.4-1.02 2.84-2.06 7.11-4.94 7.11-4.94 9.79-4.94v-2c2.08-0.984 4.17-1.96 6.25-2.94 1.16-0.545 2.32-1.09 3.52-1.65 5.47-2.39 10.2-2.62 16-2.66 0.782-0.0206 1.56-0.0412 2.37-0.0625 5.93-0.0396 10.9 0.721 15.5 4.78 0.356 0.486 0.712 0.972 1.08 1.47 1.23 1.67 2.49 3.34 3.84 4.91 1.73 2.65 1.93 4.51 2.18 7.66 0.103 1.07 0.206 2.14 0.312 3.24 0.191 2.23 0.376 4.45 0.555 6.68 0.956 9.75 3.4 17.8 11.2 24.2 0.556 0.427 1.11 0.855 1.68 1.29 0.556 0.454 1.11 0.909 1.68 1.38 3.13 2.52 6.36 4.64 9.82 6.69 8.81 6.46 17.2 13.4 19.5 24.6 0.701 6.02 0.393 11.8-0.289 17.8-0.0736 0.674-0.147 1.35-0.223 2.04-0.561 4.19-1.66 7.04-4.03 10.5-0.795 1.5-1.59 3-2.38 4.5-7.75 13.9-23.1 21-37.6 25.5-5.28 1.19-10.5 1.19-15.9 1.19-0.929 0.00137-1.86 0.00274-2.81 0.00415-5.65-0.0393-11.1-0.415-16.7-1.25-16.8-2.39-30.3 1.21-44.6 9.88-2 1.19-2 1.19-4 1.19-0.33 0.99-0.66 1.98-1 3-2.66 1.95-5.23 3.66-8.25 5-2.25 1.28-2.64 2.71-3.75 5-0.99 0.33-1.98 0.66-3 1-0.33 0.66-0.66 1.32-1 2-0.33 0.66-0.66 1.32-1 2-0.99 0.33-1.98 0.66-3 1-0.124 0.578-0.247 1.15-0.375 1.75-0.914 3.29-3.2 4.99-5.62 7.25-1.57 1.54-3.13 3.08-4.69 4.62-0.767 0.755-1.53 1.51-2.32 2.29-2.14 2.12-2.14 2.12-3.99 5.09h-2c-0.268 0.639-0.536 1.28-0.812 1.94-1.19 2.06-1.19 2.06-4.19 3.06-0.689 1.32-1.35 2.66-2 4-1.66 1.7-1.66 1.7-3.5 3.25-0.608 0.521-1.22 1.04-1.84 1.58-1.66 1.17-1.66 1.17-3.66 1.17-0.33 0.99-0.66 1.98-1 3-9.52 8.29-23.7 11.7-36 11-7.8-0.712-12.9-4.24-19-9-0.851-0.638-0.851-0.638-1.72-1.29-10.9-8.54-21.2-22.8-23.3-36.7-0.664-11.1-0.159-20.6 4-31 0.474-1.2 0.949-2.39 1.44-3.62 0.882-1.9 1.76-3.81 2.65-5.71 3.58-7.79 6.89-15.6 9.91-23.7 0.345-0.879 0.691-1.76 1.05-2.66 2.1-6.24 2.26-12.4 2.33-19 0.014-0.883 0.028-1.77 0.0425-2.68-0.0835-11.5-4.03-19.3-12-27.3-3.79-2.99-8.27-4.81-12.6-6.9-3.23-1.72-5.42-3.68-7.78-6.48-0.681-0.619-1.36-1.24-2.06-1.88-6.02-6.6-7.12-13.3-7.12-22-0.0122-0.682-0.0245-1.36-0.0371-2.07-0.0362-12.7 6.2-25.5 14.2-35.1 1.74-1.7 3.51-3.25 5.42-4.75 1.62-1.23 1.62-1.23 3.01-2.75 1.84-1.76 3.72-2.89 5.95-4.13 0.75-0.425 1.5-0.851 2.27-1.29 15-6.93 30.3 1.44 42.7 9.58z" fill="#000000"/>
<path transform="translate(295 268)" d="m0 0c1.34 1.06 2.67 2.12 4 3.19 1.22 0.93 1.22 0.93 2.47 1.88 6.62 5.1 11.8 10.7 17 17.2 10.6 12.1 26.3 24.9 42.9 26.1 11.6 0.0948 20.8-3.19 30.6-9.17h2c0.33-0.99 0.66-1.98 1-3 2.81-2.04 5.69-3.82 8.69-5.56 2.31-1.29 2.31-1.29 3.75-3 2.23-2.05 4.69-2.61 7.56-3.44v-2c2.08-0.984 4.17-1.96 6.25-2.94 1.16-0.545 2.32-1.09 3.52-1.65 5.47-2.39 10.2-2.62 16-2.66 0.782-0.0206 1.56-0.0412 2.37-0.0625 5.93-0.0396 10.9 0.721 15.5 4.78 0.356 0.486 0.712 0.972 1.08 1.47 1.23 1.67 2.48 3.33 3.84 4.91 1.74 2.67 1.94 4.57 2.22 7.74 0.108 1.08 0.215 2.16 0.326 3.27 0.2 2.25 0.398 4.5 0.594 6.76 0.946 9.42 2.98 15.9 10.3 22.4 1.06 0.978 1.06 0.978 2.14 1.98 3.8 3.47 7.41 6.42 11.9 9.02 8.94 6.28 17.4 13.7 19.5 24.9 1.05 9.85 1.12 21.7-4.54 30.1-0.795 1.5-1.59 3-2.38 4.5-2.13 3.82-4.28 6.61-7.62 9.5-0.903 0.797-0.903 0.797-1.82 1.61-16.7 13.9-35.1 16.6-56.2 15.4-3.87-0.391-7.69-1.01-11.5-1.61-12.9-1.44-24.2 1.45-35.5 7.61-0.851 0.467-1.7 0.933-2.58 1.41-5.14 2.95-9.52 6.19-13.8 10.3-1.59 1.32-1.59 1.32-3.59 1.32-0.268 0.639-0.536 1.28-0.812 1.94-1.19 2.06-1.19 2.06-4.19 3.06-0.33 0.66-0.66 1.32-1 2-0.33 0.66-0.66 1.32-1 2-0.99 0.33-1.98 0.66-3 1-0.675 1.33-1.34 2.66-2 4-1.67 1.95-3.36 3.82-5.12 5.69-0.992 1.06-1.98 2.12-2.97 3.18-0.49 0.524-0.98 1.05-1.48 1.59-2.7 2.93-5.28 5.96-7.86 8.99-1.56 1.55-1.56 1.55-3.56 1.55-0.248 0.583-0.495 1.17-0.75 1.77-1.44 2.57-3.03 4.07-5.25 5.98-0.701 0.614-1.4 1.23-2.12 1.86-1.88 1.39-1.88 1.39-3.88 1.39-0.33 0.99-0.66 1.98-1 3-9.52 8.29-23.7 11.7-36 11-7.8-0.712-12.9-4.24-19-9-0.851-0.638-0.851-0.638-1.72-1.29-11-8.63-20-22.1-23.3-35.7-1.36-11.2-0.228-21.5 4-32 0.474-1.2 0.949-2.39 1.44-3.62 0.516-1.11 1.03-2.23 1.56-3.38 5.24-11.4 5.24-11.4 10-23 0.397-1.02 0.794-2.04 1.2-3.1 2.55-7.52 3.18-14.4 3.23-22.3 0.0101-0.936 0.0201-1.87 0.0305-2.84-0.072-5.69-0.833-9.67-3.47-14.7-0.376-0.733-0.753-1.47-1.14-2.22-4.3-7.13-9.39-11.2-16.9-14.8-3.06-1.91-6.03-3.94-9-6-0.928-0.619-1.86-1.24-2.81-1.88-5.2-5.05-7.96-12.8-8.45-20-0.00525-1.37 1.19e-4 -2.73 0.0156-4.1-0.00773-0.677-0.0155-1.35-0.0234-2.05 0.0536-14 7.3-28 16.8-37.8 3.74-3.44 7.49-6.44 11.9-8.92 0.732-0.416 1.46-0.833 2.22-1.26 13.2-6.07 28.4-0.283 39.3 7.76z" fill="#000000"/>
<path transform="translate(1007)" d="m0 0h140c3 6 3 6 3 8 0.99 0.33 1.98 0.66 3 1 0.743 0.763 1.49 1.53 2.25 2.31 5.97 5.83 11.2 7.31 19.2 7.88 0.881 0.0762 1.76 0.152 2.67 0.231 3.97 0.333 7.93 0.6 11.9 0.781 19 0.911 36 6.2 49.9 19.8 9.02 10.2 12.7 20.5 12.5 34.1 0.0155 1.01 0.0309 2.02 0.0469 3.06-0.0548 10.6-3.56 19.3-10.7 27.2-1.88 1.62-1.88 1.62-3.88 1.62-0.33 0.99-0.66 1.98-1 3-8.23 6.04-19.1 6.29-28.9 6.34-1.51 0.0219-1.51 0.0219-3.05 0.0443-4.25 0.0616-8.51 0.102-12.8 0.144-3.13 0.034-6.25 0.079-9.38 0.125-0.945 0.00528-1.89 0.0106-2.86 0.016-13 0.192-26.4 3.01-36 12.3-4.36 5.15-6.73 10.3-8.26 16.8-0.886 2.6-1.44 3.64-3.74 5.16-3.26 0.434-3.26 0.434-7.12 0.438-1.26 0.0193-2.52 0.0387-3.82 0.0586-8.05-0.556-15.2-5.61-22-9.56-11.4-6.43-21.6-10.2-34.8-6.94-1.09 0.33-2.19 0.66-3.31 1v2c-1.33 1.33-2.67 2.67-4 4-3.76 5.58-4.16 10.1-4.12 16.7-0.00387 0.689-0.00773 1.38-0.0117 2.09-0.293 3.4-0.293 3.4 1.14 6.22 2.5 15.8 4.76 34.3-5 48h-2c-0.244 0.603-0.487 1.21-0.738 1.83-2.47 4.25-6.73 5.72-11.3 7.17-8.7 1.26-15.8 0.794-23-4.35-6.12-5.15-7.91-10.7-9.39-18.4-0.129-0.647-0.257-1.29-0.389-1.96-0.691-3.53-1.3-7.07-1.82-10.6-1.54-10.3-3.69-20-11.4-27.7v-2c-0.545-0.245-1.09-0.49-1.65-0.742-2.87-1.54-5.32-3.4-7.91-5.38-3.95-3.01-7.94-5.95-12-8.81-17.9-13-17.9-13-21.2-22.1-0.968-7.02-0.571-12.6 2.73-18.9 0.313-0.659 0.626-1.32 0.949-2 2.27-4.74 4.64-9.65 8.44-13.4 2.04-2.08 3.66-4.35 5.36-6.71 0.706-0.981 1.41-1.96 2.14-2.97 2.47-3.46 4.9-6.95 7.33-10.4 2.53-3.6 5.13-7.16 7.73-10.7 1.4-1.92 2.8-3.85 4.2-5.77 0.695-0.96 1.39-1.92 2.11-2.91 0.624-0.864 1.25-1.73 1.89-2.62 1.89-2.55 3.87-5.03 5.86-7.51 2.94-3.83 5.46-7.37 7-12h2c0.186-1.08 0.186-1.08 0.375-2.19 0.625-2.81 0.625-2.81 2.62-7.81 0.33-4.95 0.66-9.9 1-15z" fill="#000000"/>
<path transform="translate(207)" d="m0 0h140c1.98 3.96 1.98 3.96 4 8 1.57 1.95 1.57 1.95 3.31 3.25 0.532 0.438 1.06 0.877 1.61 1.33 6.2 4.25 10.6 6.06 18 6.61 0.831 0.0762 1.66 0.152 2.52 0.231 3.92 0.347 7.84 0.611 11.8 0.781 19.4 0.863 36.5 5.91 50.8 19.8 9.08 10.3 12.7 20.5 12.4 34.2 0.00709 1.03 0.0142 2.06 0.0215 3.12-0.089 10.7-3.6 19.1-10.6 27.2-1.81 1.5-1.81 1.5-3.81 1.5-0.33 0.99-0.66 1.98-1 3-2.34 1.12-4.59 2.09-7 3-0.846 0.371-1.69 0.742-2.56 1.12-6.23 2.24-12.7 2.05-19.2 2.12-2.13 0.0329-4.25 0.0662-6.38 0.0996-3.33 0.0473-6.66 0.0918-9.99 0.131-3.23 0.0399-6.46 0.0914-9.69 0.144-0.985 0.00841-1.97 0.0168-2.98 0.0255-12.7 0.225-25.8 3.27-35.2 12.4-4.36 5.15-6.73 10.3-8.26 16.8-0.886 2.6-1.44 3.64-3.74 5.16-3.26 0.434-3.26 0.434-7.12 0.438-1.26 0.0193-2.52 0.0387-3.82 0.0586-8.05-0.556-15.2-5.61-22-9.56-10.2-5.74-20.2-10.3-32.1-7.43-6.14 2.33-10.4 7.01-13.2 12.8-1.62 6-1.16 12.5-0.719 18.7 0.33 0.33 0.66 0.66 1 1 1.19 7.1 1.25 14.2 1.31 21.4 0.0435 1.75 0.0435 1.75 0.0879 3.54 0.0647 8.89-1.45 15.7-6.4 23.1h-2c-0.244 0.603-0.487 1.21-0.738 1.83-2.47 4.25-6.73 5.72-11.3 7.17-7.78 1.21-14.3 1.01-21.2-3.06-9.2-6.83-11.1-16.7-12.8-27.7-0.139-0.947-0.279-1.89-0.423-2.87-2.3-15.5-7.15-27.2-19.9-37.2-1.59-1.11-3.2-2.2-4.82-3.27-19.3-12.9-19.3-12.9-25.9-22-0.53-0.65-1.06-1.3-1.61-1.97-3.24-4.72-2.87-10.5-2.39-16 1.25-3.62 1.25-3.62 3-7 0.313-0.659 0.626-1.32 0.949-2 2.03-4.25 4.22-8.23 7.05-12h2c0.289-0.742 0.577-1.48 0.875-2.25 0.371-0.908 0.743-1.82 1.12-2.75 0.402-0.99 0.402-0.99 0.812-2 1.29-2.18 2.89-3.66 4.71-5.41 2.52-2.72 4.5-5.8 6.59-8.86 2.54-3.7 5.19-7.31 7.83-10.9 1.4-1.92 2.8-3.85 4.2-5.77 0.695-0.96 1.39-1.92 2.11-2.91 0.624-0.864 1.25-1.73 1.89-2.62 1.89-2.55 3.87-5.03 5.86-7.51 2.94-3.83 5.46-7.37 7-12h2c0.186-1.08 0.186-1.08 0.375-2.19 0.625-2.81 0.625-2.81 2.62-7.81 0.33-4.95 0.66-9.9 1-15z" fill="#000000"/>
<path transform="translate(570 467)" d="m0 0c0.856-0.0206 1.71-0.0412 2.59-0.0625 11-0.0664 21.2 3.99 29.3 11.4 8.12 8.9 10.2 16.8 9.82 28.5-0.596 7.46-4.16 13.9-7.5 20.5-0.343 0.685-0.686 1.37-1.04 2.08-1.85 3.67-3.82 7.22-5.96 10.7-0.875 1.61-1.73 3.24-2.56 4.88-0.414 0.802-0.828 1.6-1.25 2.43-3.73 8.49-4.92 18.3-2.46 27.4 0.964 2.22 2.05 4.26 3.28 6.34 0.362 0.712 0.724 1.42 1.1 2.16 2.76 5.31 6.15 10 9.71 14.8 3.98 5.52 7.62 11.2 11.2 17 0.446 0.706 0.892 1.41 1.35 2.14 8.29 14.6 6.67 33.3 2.65 48.9-2.43 6.53-6.17 12.9-11 18h-2c-0.268 0.639-0.536 1.28-0.812 1.94-1.19 2.06-1.19 2.06-4.19 3.06-0.33 0.99-0.66 1.98-1 3-2.16 1.3-4.23 2.42-6.5 3.5-0.634 0.308-1.27 0.616-1.92 0.934-9.4 4.49-18 6.74-28.5 6.75-0.677 0.0122-1.35 0.0245-2.05 0.0371-4.68 0.0135-8.58-0.792-13-2.22-1.21-0.3-1.21-0.3-2.45-0.605-12.9-3.36-23.1-11.9-33.5-19.9-12.4-9.42-23.7-18-40-17.8-1.1 0.00193-1.1 0.00193-2.22 0.00391-5.76 0.0987-11 1.03-16.7 2.23-11 2.22-24.2 3.31-34.1-2.92-2.88-2.44-2.88-2.44-5-5-0.763-0.784-1.53-1.57-2.31-2.38-2.26-3.52-2.18-5.49-1.69-9.62 0.488-1.35 1.01-2.68 1.56-4 2.06-4.99 1.11-8.97-0.562-14-0.75 0.0105-1.5 0.0209-2.27 0.0317-3.47 0.0422-6.94 0.0678-10.4 0.0933-1.18 0.0168-2.36 0.0335-3.57 0.0508-22.7 0.124-22.7 0.124-30.2-6.5-4.74-5.01-5.83-8.35-6.03-15.2 0.264-7.95 2.59-13.1 7.44-19.5 1.92-1.79 3.93-3.37 6-5 0.495-0.536 0.99-1.07 1.5-1.62 2.23-2.04 4.78-3.09 7.5-4.38 1.41-0.733 1.41-0.733 2.84-1.48 7.35-3.53 15.5-5.17 23.4-6.9 15.6-3.4 28.8-6.98 41.8-16.6 0.834-0.619 1.67-1.24 2.53-1.88 6.46-4.97 11.6-10.4 16.6-16.8 5.58-6.88 5.58-6.88 9.88-8.31 0.289-0.742 0.577-1.49 0.875-2.25 1.41-3.46 3.34-5.3 6.12-7.75 0.99-0.33 1.98-0.66 3-1 1.21-2 1.21-2 2-4h2c0.227-0.557 0.454-1.11 0.688-1.69 3-5.28 8.12-8.88 12.9-12.5 0.846-0.656 0.846-0.656 1.71-1.33 2.81-2.16 5.56-3.91 8.73-5.49 0.453-0.465 0.907-0.93 1.37-1.41 2.9-2.84 6.53-4.57 10.1-6.53 0.805-0.447 1.61-0.895 2.44-1.36 5.4-2.93 10.7-5.28 16.6-6.99 2.52-0.681 2.52-0.681 4.99-1.75 5.67-2.21 11.2-2.18 17.2-2.22z" fill="#000000"/>
<path transform="translate(1371 467)" d="m0 0c0.784-0.0138 1.57-0.0276 2.37-0.0417 10.6 0.0834 20.8 4.38 28.6 11.5 7.95 8.67 10.2 17.4 9.82 28.9-0.623 7.3-4.18 13.8-7.44 20.2-0.335 0.677-0.669 1.35-1.01 2.05-1.57 3.13-3.18 6.02-5.13 8.93-1.94 2.93-3.28 5.76-4.6 9.02-0.416 1.01-0.833 2.03-1.26 3.07-3.14 8.39-3.63 18.7-0.426 27.2 2.29 4.88 5.24 9.26 8.38 13.6 15.4 21.7 26.1 39.8 21.7 67.4-3 14.6-10.8 25.9-22.7 34.6-11.1 6.55-22 10.2-34.9 10.2-0.677 0.0122-1.35 0.0245-2.05 0.0371-4.68 0.0135-8.58-0.792-13-2.22-1.21-0.3-1.21-0.3-2.45-0.605-12.9-3.36-23.1-11.9-33.6-19.9-15.8-12.1-28.7-18.9-49-17.5-3.33 0.482-6.6 1.21-9.89 1.92-5.24 1.06-10.3 1.42-15.7 1.46-0.738 0.0135-1.48 0.0271-2.24 0.041-5.12-0.042-8.62-1.15-13.2-3.42-1.2-0.557-2.39-1.11-3.62-1.69-4.15-2.48-6.72-5.78-8.38-10.3-0.334-5.14 1.09-9.29 3-14 0.33-4.12 0.338-5.49-2-9-3.99-1.25-8.02-1.12-12.2-1.14-1.4-0.0183-2.8-0.0379-4.2-0.0586-2.18-0.0289-4.37-0.0508-6.55-0.0513-9.5-0.0151-17.4-0.407-24.7-7.26-4.85-5.38-4.68-10.6-4.61-17.5 0.484-6.58 3.86-12.9 8.7-17.4 1.49-1.23 3-2.43 4.52-3.62 0.446-0.482 0.892-0.964 1.35-1.46 9.69-9.04 25.6-11.2 38.1-13.8 23.1-4.98 42.1-15.4 56.6-34.4 1.71-2.03 3.28-3.47 5.31-5.12 2.73-2.27 4.82-4.59 6.94-7.44 2.93-3.91 6.12-7.41 9.56-10.9 0.48-0.489 0.961-0.979 1.46-1.48 3.48-3.45 3.48-3.45 5.73-3.45 0.206-0.557 0.412-1.11 0.625-1.69 4.87-8.19 17.1-14.9 25.4-19.3h2v-2c17.2-8.18 17.2-8.18 23-10 1.23-0.416 1.23-0.416 2.48-0.84 6.42-1.92 12.6-2.47 19.2-2.54z" fill="#000000"/>
<path transform="translate(948,388)" d="m0 0c0.935 0.373 1.87 0.745 2.83 1.13 18.4 7.4 33.4 18.3 42.1 36.8 1.86 5.34 2.13 10.5 2.09 16.1 0.0619 1.83 0.0619 1.83 0.125 3.69-2.2 6.47-7.04 11.5-12.9 15-4.87 2.27-9.91 3.92-15 5.55-10 3.56-18.6 8.71-24.2 17.8h-2c-0.557 1.73-0.557 1.73-1.12 3.5-1.72 5.19-3.66 10.3-5.61 15.4-1.58 4.16-3 8.34-4.33 12.6-1.66 5.05-3.79 9.22-6.94 13.5-0.402 0.554-0.804 1.11-1.22 1.68-4.4 5.67-8.73 8.41-15.8 9.32-14 0.947-25.5-2.58-37.8-8.94-13.7-6.94-28-10.5-43.3-7.45-14.4 5.21-23.9 18.8-32.9 30.4-2.83 3.58-5.69 6.85-9 10-0.503 0.486-1.01 0.972-1.52 1.47-4.68 4.3-9.75 6.85-15.5 9.53-2.66 1.35-5.31 2.72-7.97 4.08-2.03 0.918-2.03 0.918-4.03 0.918-0.33 0.99-0.66 1.98-1 3-0.763 0.701-1.53 1.4-2.31 2.12-5.09 5.44-6.93 11.6-7.69 18.9l-1 1c-0.203 1.5-0.347 3.01-0.465 4.52-0.078 0.922-0.156 1.84-0.236 2.79-0.156 1.95-0.31 3.89-0.461 5.84-0.0793 0.927-0.159 1.85-0.24 2.81-0.067 0.847-0.134 1.69-0.203 2.57-0.86 5.4-3.31 9.83-6.95 13.9-5.26 3.49-11.5 2.7-17.4 1.63-3.54-1.51-6.17-3.42-9-6-0.928-0.784-1.86-1.57-2.81-2.38-6.39-7.67-7.36-15.3-7.31-24.9-0.00387-0.817-0.00773-1.63-0.0117-2.47 0.00608-3.82 0.118-7.54 0.625-11.3 1.23-9.37 1.79-18.5-2.34-27.2-1.51-3.53-2.42-7.1-3.34-10.8-0.167-0.657-0.333-1.31-0.505-1.99-2.26-9.28-2.49-18.4-2.49-27.9-0.00218-2.19-0.0204-4.37-0.0393-6.56-0.0822-20.5 5.21-40.4 19.5-55.8 1.36-1.27 1.36-1.27 2.75-2.56 0.637-0.619 1.27-1.24 1.93-1.88 11-10.3 23-15.6 38-15.5 12.4 0.4 24.1 4.87 35 10.4 4.86 1.34 9.81 1.22 14.8 1.25 0.864 0.0206 1.73 0.0412 2.62 0.0625 8.04 0.0485 13.7-2.07 20.6-6.31h2v-2c1.46-1.51 1.46-1.51 3.38-3.12 0.626-0.539 1.25-1.08 1.9-1.63 1.73-1.24 1.73-1.24 3.73-1.24 0.268-0.583 0.536-1.17 0.812-1.77 1.2-2.26 2.53-4.04 4.19-5.98 0.516-0.614 1.03-1.23 1.56-1.86 1.44-1.39 1.44-1.39 3.44-1.39 0.66-1.65 1.32-3.3 2-5h2c0.66-1.65 1.32-3.3 2-5h2c0.272-0.589 0.544-1.18 0.824-1.79 1.87-3.52 4.52-6.27 7.18-9.21 0.722-0.804 1.44-1.61 2.19-2.44 22.4-20.4 56.1-29.3 84.8-16.6z" fill="#000000"/>
<path transform="translate(901,624)" d="m0 0c0.781 0.498 1.56 0.995 2.37 1.51 11.7 7.62 22.4 17.7 26.6 31.5 2.21 15.6-0.335 30.2-9.38 43.2-0.579 0.754-1.16 1.51-1.75 2.29-3.06 4.13-5.57 8.6-8.17 13-0.841 1.23-0.841 1.23-1.7 2.49h-2c-0.246 0.71-0.492 1.42-0.746 2.15-1.41 3.21-3.17 5.63-5.32 8.41-0.81 1.06-1.62 2.12-2.43 3.18-0.415 0.539-0.83 1.08-1.26 1.63-16 20.9-28.3 39.9-30.3 66.6h-69c-1.65-4.95-3.3-9.9-5-15-5.22-9.48-9.54-14.7-19.7-18.4-3.97-1.09-7.86-1.01-12-0.932-0.828-0.00322-1.66-0.00645-2.51-0.00977-4.43 0.039-7.75 0.402-11.8 2.32-1.83 0.501-3.66 0.98-5.5 1.44-3.97 1.06-7.09 2.22-10.5 4.56-2 1.01-4 2-6 3-2.47 1.3-4.92 2.62-7.38 3.94-1.97 1.05-3.95 2.1-5.92 3.15-1.36 0.724-2.72 1.45-4.07 2.18-13.3 6.93-27.6 9.93-42.5 7.2-2.13-0.689-4.09-1.49-6.1-2.47-0.704-0.313-1.41-0.626-2.13-0.949-6.63-3.09-11.1-6.63-14.9-13.1-1.16-3.46-1.17-6.81-1.19-10.4-0.0142-1.11-0.0284-2.22-0.043-3.37 0.84-11.6 10.6-24.5 19.2-31.9 18.3-13.4 38.5-19.5 60.3-24.5 15-3.43 29.8-6.95 42.7-15.8 0.978-0.602 1.96-1.2 2.96-1.82 9.68-6.94 14.8-18.1 19.4-28.7 1.59-3.46 1.59-3.46 3.59-5.46 0.732-1.68 1.46-3.37 2.16-5.07 1.36-3.14 3.02-6.09 4.71-9.06 0.326-0.594 0.652-1.19 0.988-1.8 2.25-3.97 4.81-6.97 8.14-10.1 0.639-0.681 1.28-1.36 1.94-2.06 23.5-22.1 68.4-19.4 94.1-2.94z" fill="#000000"/>
<path transform="translate(1549 21.6)" d="m0 0c6.7 4.6 10.3 11.3 14.3 18.2 7.14 12.2 14.6 21.6 27.9 27.3 2.97 0.66 5.94 1.32 9 2v235c-5.53 2.77-15.8 1.88-21.7 0.246-12.4-6.1-17.1-16.9-22.1-29-10.1-23.7-24-45.3-48.1-56.2-1.13-0.557-2.27-1.11-3.44-1.69-7.8-2.87-15.8-3.48-24.1-4.03-6.19-0.501-12.3-1.41-18.5-2.28-1.21-0.15-2.42-0.299-3.67-0.453-10.5-1.73-20.1-8.04-26.3-16.5-4.6-6.82-4.74-13.5-3.44-21.4 3.06-7.57 7.84-13.8 14.4-18.6 0.866-0.639 1.73-1.28 2.62-1.94 4.96-3.03 10.1-5.55 15.4-8.06 0.801-0.385 1.6-0.771 2.43-1.17 5.38-2.49 10.9-4.26 16.6-5.83v-2c0.846-0.392 1.69-0.784 2.56-1.19 5.45-2.87 9.86-5.74 13.4-10.8h2c0.227-0.66 0.454-1.32 0.688-2 1.4-3.2 3.11-6 5-8.94 0.434-0.681 0.869-1.36 1.32-2.06 0.514-0.739 1.03-1.48 1.56-2.24 1.87-3.58 2.44-6.99 3.07-10.9 1.27-7.61 1.27-7.61 2.38-9.81 0.121-2.79 0.186-5.55 0.211-8.34 0.0281-1.72 0.0568-3.44 0.0859-5.16 0.041-2.71 0.0779-5.41 0.104-8.12 0.172-16.1 1.12-28.1 12.6-40.4 6.65-5.64 15.8-7.51 23.8-3.44z" fill="#000000"/>
<path transform="translate(148,388)" d="m0 0c0.935 0.373 1.87 0.745 2.83 1.13 17.8 7.16 32.9 17.9 41.7 35.4 3.02 7.8 3.79 17.6 0.438 25.4-5.81 9.67-16.2 13.4-26.6 16.2-9.54 3.08-18.1 9.29-23.4 17.8h-2c-0.557 1.73-0.557 1.73-1.12 3.5-1.72 5.19-3.66 10.3-5.61 15.4-1.57 4.14-3 8.3-4.33 12.5-1.7 5.25-4.05 9.87-6.94 14.6h-2c-0.186 0.557-0.371 1.11-0.562 1.69-2.46 3.95-6.26 6.72-10.8 7.94-13.5 1.88-25.5-0.744-37.7-6.63-3.66-1.69-7.32-3.35-11-5l-2.5-1.14c-10.9-4.7-23.1-6.84-34.6-2.77-8.26 3.8-15.8 9.28-20.9 16.9h-3v-86c4.29-0.99 8.58-1.98 13-3 9.46-3.31 16.4-9.1 23.4-16.1 0.911-0.903 0.911-0.903 1.84-1.82 3.14-3.19 5.57-6.2 7.78-10.1 0.968-1.03 1.97-2.03 3-3 0.949-1.07 1.89-2.16 2.81-3.25 0.521-0.611 1.04-1.22 1.58-1.85 1.05-1.24 2.11-2.49 3.16-3.73 21.9-25.9 59.1-38.5 91.5-24.2z" fill="#000000"/>
<path transform="translate(86,617)" d="m0 0c0.986 0.396 0.986 0.396 1.99 0.801 15.1 6.3 30.1 15.3 38 30.2 0.339 0.628 0.678 1.26 1.03 1.9 2.99 6.01 3.64 11.2 3.53 17.8-0.0102 0.968-0.0205 1.94-0.031 2.93-0.233 7.91-1.76 14.3-5.53 21.3-0.519 0.976-1.04 1.95-1.57 2.96-1.73 3.07-3.55 6.06-5.43 9.04-0.575 0.933-0.575 0.933-1.16 1.89-1.21 1.96-2.43 3.91-3.65 5.86-0.385 0.621-0.77 1.24-1.17 1.88-0.953 1.49-1.98 2.94-3.02 4.37h-2c-0.371 1.08-0.371 1.08-0.75 2.19-1.39 3.12-3.06 5.19-5.25 7.81-17.5 22.7-31.4 42.9-34 72h-67c-0.113-21.9-0.205-43.7-0.259-65.6-0.0258-10.1-0.061-20.3-0.118-30.4-0.0498-8.84-0.0821-17.7-0.0932-26.5-0.00653-4.68-0.0219-9.37-0.0582-14-0.0339-4.41-0.0444-8.81-0.0369-13.2-0.00138-1.62-0.0114-3.24-0.0305-4.86-0.0248-2.21-0.0189-4.41-0.00525-6.62-0.00461-1.24-0.00922-2.47-0.014-3.75 0.615-2.99 0.615-2.99 3.03-4.79 1.28-0.596 1.28-0.596 2.59-1.2 1.34-1.32 2.68-2.66 4-4 20.8-15 53.4-18.5 77-8z" fill="#000000"/>
<path transform="translate(105 46.8)" d="m0 0c0.755-0.0122 1.51-0.0245 2.29-0.0371 6.41-0.0165 12.3 0.494 17.6 4.35 2.58 3.59 3.35 6.54 3.06 10.9-0.913 4.16-2.09 8.19-4 12h-2c-0.268 0.804-0.536 1.61-0.812 2.44-0.392 0.846-0.784 1.69-1.19 2.56-1.48 0.495-1.48 0.495-3 1-0.495 0.99-0.495 0.99-1 2-0.495 0.99-0.495 0.99-1 2-1.48 0.495-1.48 0.495-3 1-0.309 0.66-0.619 1.32-0.938 2-0.351 0.66-0.701 1.32-1.06 2-1.33 0.362-2.66 0.697-4 1-0.33 0.99-0.66 1.98-1 3-1.32 0.702-2.65 1.37-4 2-1 0.997-2 2-3 3-2.78 2.31-5.59 4.57-8.41 6.84-2.52 2.02-2.52 2.02-4.31 3.94-1.28 1.22-1.28 1.22-3.28 1.22-0.26 0.565-0.521 1.13-0.789 1.71-1.33 2.51-2.89 4.64-4.59 6.91-6.75 9.68-9.33 18.4-7.62 30.4 1.31 3.45 2.83 6.52 4.69 9.71 1.31 2.29 1.31 2.29 1.31 4.29l3 1c1.68 2.33 1.68 2.33 3.44 5.25 1.77 2.92 3.45 5.62 5.66 8.23 4.11 5.44 4.27 11 4.28 17.6 0.0245 0.79 0.049 1.58 0.0742 2.39 0.0184 3.65-0.202 6.05-1.85 9.35-7.7 6.49-16 6.69-25.7 6.32-14.6-0.631-14.6-0.631-27.4 5.46-6.25 5.9-7.54 12.7-7.88 20.9-0.07 2.43-0.131 4.86-0.184 7.29-0.0597 2.44-0.123 4.89-0.191 7.33-0.0239 1.08-0.0479 2.15-0.0725 3.26-0.174 2.59-0.174 2.59-1.17 4.59-0.174 1.87-0.344 3.74-0.493 5.61-1 11.7-4.53 22.3-13.5 30.4-4.61 3.57-7 5-13 5v-233c12.4-0.99 12.4-0.99 25-2 10.7-1.94 19.6-4.81 29.6-8.68 8.52-3.27 17.1-6.28 25.8-9.07 0.963-0.316 0.963-0.316 1.94-0.639 7.52-2.37 14.9-2.79 22.7-2.8z" fill="#000000"/>
<path transform="translate(1579,449)" d="m0 0c1.95 0.737 3.91 1.45 5.88 2.12 0.946 0.333 1.89 0.665 2.87 1.01 2.73 0.727 5.17 1.13 7.96 1.42 0.806 0.085 1.61 0.17 2.44 0.258 0.612 0.0621 1.22 0.124 1.85 0.188 0.116 11.9 0.205 23.9 0.259 35.8 0.0261 5.54 0.0615 11.1 0.118 16.6 0.0543 5.34 0.0842 10.7 0.0972 16 0.00925 2.04 0.0273 4.08 0.0543 6.12 0.0362 2.85 0.0413 5.71 0.039 8.56 0.018 0.846 0.036 1.69 0.0545 2.56-0.0508 5.76-0.0508 5.76-3.03 8.74-1.28 0.789-1.28 0.789-2.59 1.59-1.38 1.61-2.71 3.25-4 4.94-2.83 3.61-5.56 7.03-9 10.1h-2c-0.495 1.49-0.495 1.49-1 3-6.1 4.65-17.3 12-25 12v2c-0.619 0.0619-1.24 0.124-1.88 0.188-2.34 0.616-2.34 0.616-3.19 3-0.309 0.928-0.619 1.86-0.938 2.81-0.495 0.887-0.99 1.77-1.5 2.69-1.69 3.73-2.39 7.22-3.07 11.2-0.43 2.07-0.43 2.07-1.43 3.07-0.202 1.41-0.347 2.84-0.465 4.26-0.078 0.872-0.156 1.74-0.236 2.64-0.156 1.84-0.31 3.67-0.461 5.51-0.697 7.72-2 14.1-7.39 20-5.31 3.47-11.5 2.76-17.4 1.6-3.89-1.82-6.85-4.11-10-7-0.949-0.722-1.9-1.44-2.88-2.19-8.31-11-7.1-25.8-5.36-38.8 1.05-8.99 1.38-18.1-2.61-26.3-1.53-3.53-2.43-7.12-3.34-10.9-0.25-0.999-0.25-0.999-0.505-2.02-2.2-9.09-2.49-17.9-2.49-27.2-0.00217-2.27-0.0203-4.54-0.0393-6.81-0.07-17.8 4.08-31 12.2-46.8h2c0.206-0.681 0.412-1.36 0.625-2.06 4.78-10.2 16.5-19.6 26.8-23.9 16.7-5.72 32.8-2.95 48.6 4z" fill="#000000"/>
<path transform="translate(1414 79.6)" d="m0 0c7.08 7.08 8.77 12.9 8.83 22.8-0.144 7.94-2.59 13.8-8.01 19.7-2.38 1.94-2.38 1.94-5.38 2.94-0.33 0.99-0.66 1.98-1 3-5.2 3.83-11 6.59-17 9-1.77 0.807-3.54 1.62-5.31 2.44-4.44 2.04-8.92 3.87-13.5 5.57-2.35 1.06-4.14 2.44-6.19 3.99-2.75 0.688-2.75 0.688-5 1-0.33 0.99-0.66 1.98-1 3-1.32 0.697-2.65 1.36-4 2-8.17 7.53-15 17.9-21.1 27.2-7.12 10.7-17 23.5-30.1 26.6-11.7 2.04-20.3 0.273-31-4.53-10.1-4.36-17.3-3.9-27.7-0.508-3.72 1.55-6.58 3.49-9.61 6.12-1.49 1.17-1.49 1.17-3.49 1.17-0.33 0.99-0.66 1.98-1 3h-2c-0.246 0.544-0.492 1.09-0.746 1.65-1.53 2.87-3.38 5.37-5.32 7.98-2.69 3.55-2.69 3.55-4.94 7.38h-2c-0.238 0.811-0.238 0.811-0.48 1.64-1.87 6-4.41 11.3-7.52 16.7-0.438 0.793-0.877 1.59-1.33 2.4-1.97 3.51-3.72 6.46-6.67 9.22-0.804 0.825-1.61 1.65-2.44 2.5-5.26 5.13-9.83 7.77-17.3 7.94-7.09-0.139-11.9-2.27-17-7.12-10.6-11.7-10.8-26.4-10.2-41.3 0.713-10.5 3.32-19 11.2-26.2 12.4-9.65 26.9-14.3 41.8-18.8 1.49-0.452 2.99-0.903 4.48-1.36 7.13-2.14 14.2-4.09 21.5-5.64 0.928-0.309 1.86-0.619 2.81-0.938 3.94-1.31 7.94-2.24 12-3.18 3.13-0.86 6.08-1.92 9.1-3.08 2.08-0.792 4.17-1.53 6.28-2.26 12.3-4.24 23.4-9.27 34.8-15.5 0.772-0.411 1.54-0.822 2.34-1.25 17.2-9.24 34-20.9 48.9-33.4 2.23-1.87 4.47-3.6 6.81-5.31 2.36-1.75 4.35-3.42 6.44-5.5 2.69-2.69 5.55-4.85 8.63-7.07 1.87-1.36 1.87-1.36 3.34-2.93 9.89-9.77 25.5-16.9 39.1-10.9z" fill="#000000"/>
<path transform="translate(614 79.6)" d="m0 0c7.08 7.08 8.77 12.9 8.83 22.8-0.144 7.94-2.59 13.8-8.01 19.7-2.38 1.94-2.38 1.94-5.38 2.94-0.33 0.99-0.66 1.98-1 3-5.2 3.83-11 6.59-17 9-1.77 0.807-3.54 1.62-5.31 2.44-3.54 1.63-7.09 3.1-10.8 4.44-4.76 1.85-8.63 4.5-12.7 7.54-2.23 1.59-2.23 1.59-4.33 2.6-9.34 4.84-17.2 19.5-23 28.1-7.12 10.7-17 23.3-29.9 26.8-10.2 1.27-19.8 0.865-29-4-10.6-4.95-18.6-5.2-29.7-1.44-11.8 5.13-22 15.7-27.3 27.4h-2c-0.159 0.534-0.317 1.07-0.48 1.62-3.13 10-7.81 21-15.5 28.4-0.804 0.825-1.61 1.65-2.44 2.5-5.26 5.13-9.83 7.77-17.3 7.94-7.09-0.139-11.9-2.27-17-7.12-10.5-11.5-10.5-25.7-10.3-40.4 0.026-1.52 0.0244-3.04 0.0132-4.55 0.311-7.98 4.67-16 10.2-21.6 2.2-1.75 4.44-3.29 6.82-4.79 0.955-0.669 0.955-0.669 1.93-1.35 5.61-3.8 11.8-6.21 18.1-8.65l2.76-1.1c5.97-2.29 11.9-3.83 18.2-5.18 3.41-0.799 6.65-1.87 9.95-3.03 2.98-0.967 6.02-1.58 9.08-2.23 2.19-0.46 2.19-0.46 4.85-1.4 3.94-1.31 7.94-2.24 12-3.18 3.13-0.86 6.08-1.92 9.1-3.08 2.08-0.792 4.17-1.53 6.28-2.26 12.3-4.24 23.4-9.27 34.8-15.5 0.772-0.411 1.54-0.822 2.34-1.25 17.2-9.24 34-20.9 48.9-33.4 2.23-1.87 4.47-3.6 6.81-5.31 2.36-1.75 4.35-3.42 6.44-5.5 2.69-2.69 5.55-4.85 8.63-7.07 1.87-1.36 1.87-1.36 3.34-2.93 9.89-9.77 25.5-16.9 39.1-10.9z" fill="#000000"/>
<path transform="translate(1600,638)" d="m0 0v157c-4.54-2.27-4.69-3.28-6.23-7.84-2.05-5.71-5.26-10.1-9.77-14.2-0.743-0.701-1.49-1.4-2.25-2.12-6.68-4.56-13.1-5.15-21-5.19-0.781-0.00548-1.56-0.011-2.37-0.0166-4.29 0.0534-7.45 0.495-11.4 2.33-1.83 0.501-3.66 0.98-5.5 1.44-3.97 1.06-7.09 2.22-10.5 4.56-2 1.01-4 2-6 3-2.47 1.3-4.92 2.62-7.38 3.94-1.97 1.05-3.95 2.1-5.92 3.15-1.36 0.724-2.72 1.45-4.07 2.18-13.3 6.93-27.6 9.93-42.5 7.2-2.13-0.689-4.09-1.49-6.1-2.47-0.704-0.313-1.41-0.626-2.13-0.949-6.67-3.11-11.4-6.66-14.9-13.3-2.29-6.66-1.83-13.9 0.238-20.6 0.598-1.05 1.2-2.1 1.81-3.19 0.34-0.681 0.681-1.36 1.03-2.06 10.2-19.8 28.3-30.6 48.9-37.3 9.57-2.95 19.3-5.42 29.2-7.25 2.73-0.556 5.29-1.48 7.91-2.39 1.71-0.466 3.41-0.924 5.12-1.38 12.8-3.42 12.8-3.42 24.4-9.67 1.52-0.953 1.52-0.953 3.52-0.953 0.33-0.99 0.66-1.98 1-3 2.06-0.688 2.06-0.688 4-1 0.0619-0.557 0.124-1.11 0.188-1.69 1.15-3.28 3.32-4.93 5.81-7.31 5.21-5.7 8.22-12.9 11-20h2c0.186-1.08 0.186-1.08 0.375-2.19 0.615-2.77 1.51-5.21 2.62-7.81h2c0.155-1.08 0.155-1.08 0.312-2.19 0.755-3.09 1.88-5.21 3.69-7.81 2-1 2-1 3-1z" fill="#000000"/>
<path transform="translate(593 282)" d="m0 0c1.11 0.743 1.11 0.743 2.25 1.5 0.733 0.29 1.47 0.58 2.22 0.879 3.27 1.32 6.33 2.93 9.46 4.56 4.98 2.55 9.86 4.58 15.3 6.01 2.04 0.551 2.04 0.551 4.73 1.68 9.24 3.5 22.1 3.25 31.3-0.125 5.85-2.74 11.3-6.14 16.7-9.62 1.77-1.13 3.54-2.25 5.31-3.38 0.675-0.44 1.35-0.879 2.05-1.33 5.7-3.33 11.5-3.57 18-2.67 5.98 3.06 9.37 9.98 11.8 16.1 2.81 9.26 2.44 20.2-1.81 28.9-0.367 0.762-0.735 1.52-1.11 2.31-6.75 12.5-17.9 22.1-28.9 30.7-0.732 0.585-1.46 1.17-2.22 1.77-1.78 1.23-1.78 1.23-3.78 1.23v2c-2.22 1.57-4.44 3.02-6.75 4.44-1.27 0.789-2.53 1.58-3.8 2.37-0.603 0.377-1.21 0.754-1.83 1.14-1.3 0.841-2.56 1.75-3.8 2.68-12.8 9.54-28.4 11.8-43.8 11.4-0.798-0.0168-1.6-0.0335-2.42-0.0508-13.4-0.857-25.8-9.33-34.8-18.8-12.2-14.6-21.5-33.5-22.6-52.7-0.109-2.59-0.109-2.59-0.977-5.78-0.487-9.42 3.83-17.8 9.69-24.9 7.79-6.41 21.4-4.85 29.9-0.25z" fill="#000000"/>
<path transform="translate(1410 290)" d="m0 0c3.06 1.68 5.61 2.66 8.98 3.47 3.61 0.88 6.93 1.98 10.4 3.38 17.9 3.74 30.8-1.05 45.7-10.6 1.77-1.13 3.54-2.25 5.31-3.38 0.687-0.44 1.37-0.879 2.08-1.33 5.47-3.15 10.7-3.45 16.9-2.67 5.73 2.12 8.55 7.15 11.2 12.4 3.97 9.39 4.74 20.8 0.922 30.4-2.35 4.61-4.95 9.11-8.12 13.2h-2c-0.389 1.12-0.389 1.12-0.785 2.27-5.98 13.5-25.5 24-37.5 31.9-1.67 1.12-3.33 2.28-4.94 3.48-13.9 10.4-32.3 13-49.1 10.8-17.3-3.62-30.6-15.3-40.1-29.7-1.22-1.93-2.4-3.87-3.57-5.83-0.748-1.15-0.748-1.15-1.51-2.33-1.67-3-2.6-5.87-3.55-9.17-1.33-4.58-1.33-4.58-2.99-9.05-3.11-8.02-3.32-17-2.95-25.4 0.00645-0.771 0.0129-1.54 0.0195-2.34 0.332-7.01 3.42-13.3 8.57-18.1 14.7-10.3 34 0.855 47.1 8.64z" fill="#000000"/>
<path transform="translate(276 724)" d="m0 0c1.14-0.00387 2.28-0.00773 3.46-0.0117 14.2 0.0165 14.2 0.0165 20.4 2.51 0.672 0.268 1.34 0.536 2.04 0.812 0.648 0.268 1.3 0.536 1.96 0.812 1.7 0.681 1.7 0.681 3.44 1.38 13.2 6.03 24.7 14.6 30.7 28.3 3.18 9.27 4.54 19.1 6.09 28.7 0.213 1.32 0.213 1.32 0.431 2.67 0.378 3.62 0.304 7.27 0.304 10.9h-140c-3-7-3-7-3.81-9.31-1.82-2.59-4.22-2.87-7.19-3.69-0.33-0.33-0.66-0.66-1-1-4-0.286-7.08 0.303-10.9 1.48-6.6 1.61-14.6 2.44-21.1 0.516-4.01-2.44-6.49-4.92-8.5-9.19-1.18-8.97 0.0911-16 5.38-23.4 6.63-7.41 14.9-11.4 24.4-13.7 2.73-0.65 2.73-0.65 5.54-1.66 3.5-1.13 6.96-1.83 10.6-2.51 4.95-0.935 9.72-2.11 14.6-3.5 2.39-0.503 4.79-0.982 7.19-1.44 4.69-0.904 9.32-1.91 13.9-3.12 5.41-1.41 10.8-2.26 16.4-3.01 2.45-0.168 2.45-0.168 3.52-1.43 7.38-1.09 14.7-1.15 22.1-1.12z" fill="#000000"/>
<path transform="translate(1076 724)" d="m0 0c1.14-0.00387 2.28-0.00773 3.46-0.0117 14.2 0.0165 14.2 0.0165 20.4 2.51 0.672 0.268 1.34 0.536 2.04 0.812 0.648 0.268 1.3 0.536 1.96 0.812l3.44 1.38c13.2 6.04 24.8 14.7 30.8 28.4 3.23 9.42 4.27 19.3 5.46 29.2 0.298 2.25 0.298 2.25 1.33 5.06v8h-140c-0.99-2.31-1.98-4.62-3-7-3.01-3.42-7.18-6.83-11.8-7.25-2.94 0.226-5.34 0.864-8.13 1.73-6.54 1.59-14.7 2.54-21.1 0.516-4.6-3.42-8.11-7.2-9-13 0.035-7.79 0.989-13.8 6.44-19.6 0.846-0.784 1.69-1.57 2.56-2.38 0.577-0.66 1.15-1.32 1.75-2 5.71-5.08 12.2-7.55 19.6-9.32 2.73-0.65 2.73-0.65 5.54-1.66 3.5-1.13 6.96-1.83 10.6-2.51 4.95-0.935 9.72-2.11 14.6-3.5 2.39-0.503 4.79-0.982 7.19-1.44 4.69-0.904 9.32-1.91 13.9-3.12 5.41-1.41 10.8-2.26 16.4-3.01 2.45-0.168 2.45-0.168 3.52-1.43 7.38-1.09 14.7-1.15 22.1-1.12z" fill="#000000"/>
<path transform="translate(1058,579)" d="m0 0c2.46 2.57 4.75 5.25 7 8 0.666 0.791 1.33 1.58 2.02 2.4 2.03 2.67 3.54 5.29 5.04 8.29 0.486 0.953 0.972 1.91 1.47 2.89 3.84 8.97 4.92 16.7 4.78 26.5 0.00322 1.12 0.00645 2.24 0.00977 3.39-0.0632 9.79-1.21 17.6-6.26 26-0.347 0.619-0.695 1.24-1.05 1.88-2.62 4.49-2.62 4.49-6.01 5.62-0.67 1.33-1.34 2.67-2 4-1.92 1.82-1.92 1.82-4.19 3.56-0.736 0.579-1.47 1.16-2.23 1.75-8.22 5.36-16.1 5.53-25.6 4.68-6.72-1.66-12.8-4.44-16.5-10.5-4.23-7.55-7.48-14.9-9.29-23.4-1.4-6.12-3.35-11-6.92-16.3-1.27-1.92-1.27-1.92-2.27-4.92-1.92-1.17-1.92-1.17-4-2l-2-1c-2.19-0.119-4.39-0.179-6.58-0.211-1.34-0.0281-2.68-0.0567-4.01-0.0859-2.11-0.0412-4.21-0.0781-6.32-0.104-2.04-0.0277-4.07-0.0736-6.1-0.122-1.22-0.0198-2.44-0.0396-3.69-0.0601-5.02-0.636-7.52-2.64-11-6.17-3.34-4.83-3.66-8.84-2.69-14.5 3.05-11.8 11.3-23 21.5-29.7 25.6-14.3 64.2-8.09 86.9 9.91z" fill="#000000"/>
<path transform="translate(232 566)" d="m0 0c1.67 0.716 3.38 1.35 5.09 1.96 11.5 4.1 20.5 9.22 28 18.9 0.99 1.18 0.99 1.18 2 2.39 2.05 2.67 3.56 5.29 5.06 8.3 0.486 0.953 0.972 1.91 1.47 2.89 3.83 8.97 5.02 16.9 4.96 26.7-5e-3 1.19-0.00999 2.39-0.0151 3.62-0.243 12.3-2.98 23.7-11.5 33.1h-2c-0.367 0.88-0.367 0.88-0.742 1.78-3.1 5.47-9.88 9.86-15.8 11.8-8.27 1.47-17.1 1.79-24.4-2.57-0.652-0.306-1.3-0.611-1.98-0.926-8.31-4.28-11.3-12.5-14.1-20.9-0.995-3.15-1.93-6.31-2.83-9.49-1.71-5.91-3.43-11-6.99-16-1.05-1.59-1.05-1.59-2.05-4.59-4.43-2.66-8.37-3.13-13.5-3.21-1.28-0.0284-2.55-0.0567-3.87-0.0859-2.02-0.0412-4.05-0.0781-6.07-0.104-1.96-0.0277-3.92-0.0747-5.88-0.122-1.17-0.0198-2.34-0.0396-3.54-0.0601-4.94-0.647-7.46-2.7-10.9-6.17-3.37-4.86-3.66-8.87-2.62-14.6 3.42-13.1 11.7-23.2 23.2-30.2 16.1-9.41 41.9-9.73 59.1-2.34z" fill="#000000"/>
<path transform="translate(1400 734)" d="m0 0c8.28 4.14 13 13.6 15.9 22 4.29 14.8 2.76 30.2-2.91 44.4h-159c-1.35-6.77-2.32-12.4-2.25-19.1-0.00773-0.746-0.0155-1.49-0.0234-2.26 0.0446-12.8 5.46-24.4 14.3-33.6 9.43-7.81 19-8.84 31-8 5.21 1.05 8.8 2.8 13 6 1.36 0.797 2.74 1.57 4.12 2.31 3.36 1.83 6.62 3.74 9.88 5.75 10.1 6.09 19.4 9.54 31.3 7.55 9.14-2.5 15-9.38 20.3-16.9 2.07-2.6 4.53-4.11 7.4-5.75 1.11-0.866 1.11-0.866 2.25-1.75 4.72-2.14 9.79-2.17 14.7-0.629z" fill="#000000"/>
<path transform="translate(600 734)" d="m0 0c8.55 4.34 13.2 14.2 16.2 22.9 3.47 14.9 2.17 29.2-3.19 43.5h-159c-1.35-6.77-2.32-12.4-2.25-19.1-0.00773-0.746-0.0155-1.49-0.0234-2.26 0.0451-13 5.56-24.2 14.3-33.6 9.87-7.66 18.9-8.71 31-8 5.21 1.04 8.81 2.8 13 6 1.36 0.797 2.74 1.57 4.12 2.31 5.92 3.23 11.7 6.68 17.4 10.3 7.62 4.31 17.7 4.64 26 2.39 7.95-2.99 13.3-9.79 18.7-16.1 6.61-7.09 14-11.3 23.8-8.28z" fill="#000000"/>
<path transform="translate(1256)" d="m0 0h155c-0.751 3.76-1.24 5.83-3 9h-2c-0.268 0.804-0.536 1.61-0.812 2.44-0.392 0.846-0.784 1.69-1.19 2.56-0.99 0.33-1.98 0.66-3 1-0.404 0.872-0.404 0.872-0.816 1.76-1.68 3.18-4.29 4.95-7.12 7.05-0.866 0.655-0.866 0.655-1.75 1.32-4.51 3.37-9.16 6.45-13.9 9.4-1.91 1.18-3.77 2.43-5.61 3.71-3.14 2-6.3 3.36-9.75 4.75-1.01 0.474-2.02 0.949-3.06 1.44-17 7.28-39.6 10.2-57.2 3.27-3.28-1.48-6.49-3.05-9.69-4.71-1.31-0.675-1.31-0.675-2.64-1.36-4.13-2.21-7.81-4.55-11.4-7.64-0.57-0.433-1.14-0.866-1.73-1.31-8.68-6.92-16.2-17.4-20.3-27.7v-5z" fill="#000000"/>
<path transform="translate(456)" d="m0 0h155c-0.751 3.76-1.24 5.83-3 9h-2c-0.34 1.08-0.34 1.08-0.688 2.19-2.51 5.38-5.95 7.73-11.3 9.81-0.33 0.99-0.66 1.98-1 3-1.9 1.58-1.9 1.58-4.38 3.25-0.905 0.611-1.81 1.22-2.74 1.85-1.43 0.94-1.43 0.94-2.88 1.9-0.91 0.606-1.82 1.21-2.76 1.84-5.89 3.84-11.9 7.19-18.2 10.2-1.07 0.516-2.14 1.03-3.25 1.56-16.4 6.81-38.8 10.4-55.7 3.64-7.66-3.43-15-7.52-22-12.2-1.01-0.598-2.02-1.2-3.06-1.81-7.43-5.54-12.7-13.6-17.9-21.2-0.552-0.77-1.1-1.54-1.67-2.33-1.33-2.67-1.33-2.67-2.33-10.7z" fill="#000000"/>
<path transform="translate(921 263)" d="m0 0c0.925-0.0206 1.85-0.0412 2.8-0.0625 9.34-0.0531 16 2.92 22.9 9.31 11.7 13.6 12.9 29.1 12.2 46.2-0.754 9.34-5.34 18.4-12.2 24.8-8.37 5.62-15.9 8.21-26 7-8.54-3.12-12.9-10.5-16.6-18.4-0.9-1.96-1.79-3.93-2.68-5.89-6.04-13.3-12.3-23.9-25.8-30.4-1.93-1.01-1.93-1.01-4.93-3.31-0.543-3.85-0.372-6.11 1.12-9.69 10.2-12.6 33.6-19.5 49.2-19.6z" fill="#000000"/>
<path transform="translate(122 263)" d="m0 0c0.873-0.0206 1.75-0.0412 2.64-0.0625 9.13-0.0549 15.8 3.08 22.5 9.31 11.7 13.6 12.9 29.1 12.2 46.2-0.754 9.34-5.34 18.4-12.2 24.8-8.37 5.62-15.9 8.21-26 7-8.14-2.98-12.9-10.4-16.5-17.9-0.79-1.75-1.58-3.51-2.36-5.27-5.95-12.9-11.6-23.4-24.2-30.8-1.19-0.784-2.38-1.57-3.56-2.38-0.804-0.536-1.61-1.07-2.44-1.62-1-1-1-1-1.25-3.75 0.288-3.74 0.934-5.32 3.25-8.25 14-10 30.6-17.1 47.9-17.2z" fill="#000000"/>
<path transform="translate(799)" d="m0 0h69c3.38 10.1 3.38 10.1 3.36 14.1-9.67e-4 1.28-9.67e-4 1.28-0.00195 2.59l-0.0488 2.61c0.00322 0.88 0.00645 1.76 0.00977 2.67-0.0359 4.3-0.157 7.22-2.32 11h-2c-0.227 0.598-0.454 1.2-0.688 1.81-2.67 4.45-7.5 5.91-12.3 7.19-13.2 1.22-28.8 1.79-39.9-6.62-3.92-3.84-6.5-8.57-9.06-13.4-0.393-0.73-0.786-1.46-1.19-2.21-3.62-6.97-4.81-11.6-4.81-19.8z" fill="#000000"/>
<path transform="translate(0)" d="m0 0h67c0 25.8 0 25.8-9 35-7.78 5.18-18.3 4.79-27.3 3.73-9.21-1.96-16.9-7.44-22.7-14.7-1.92-3.23-3.47-6.57-5-10l-1.81-3.12c-1.19-2.88-1.19-2.88-1.19-10.9z" fill="#000000"/>
</svg>
