<svg data-v-0dd9719b="" version="1.0" xmlns="http://www.w3.org/2000/svg" xmlns:xlink="http://www.w3.org/1999/xlink" width="100%" height="100%" viewBox="0 0 340.000000 250.000000" preserveAspectRatio="xMidYMid meet" color-interpolation-filters="sRGB" style="margin: auto;">
    <rect data-v-0dd9719b="" x="0" y="0" width="100%" height="100%" fill="#ffffff" fill-opacity="0" class="background"></rect>
    <rect data-v-0dd9719b="" x="0" y="0" width="100%" height="100%" fill="url(#watermark)" fill-opacity="1" class="watermarklayer"></rect> <g data-v-0dd9719b="" fill="#333333" class="pmspacesvg" transform="translate(59.43999481201172,91.47500228881836)"><!----> <g><rect data-gra="graph-name" height="10" width="10" x="0" y="57.04999542236328"></rect> <rect data-gra="graph-name" height="10" width="10" x="211.12001037597656" y="0"></rect> <!----> <!---->
    <g fill-opacity="1" mask="url(#0c71b90f-7796-40ed-aacc-310ba4b94389)"><g>
        <rect data-gra="graph-name-bg" stroke-width="2" class="i-icon-bg" x="0" y="0" width="221.12001037597656" height="67.04999923706055" rx="10" ry="10"></rect> <!----> <!----> </g>
        <g transform="translate(10,10)"><g data-gra="path-name" fill-rule="" class="tp-name" fill="#ffffff" fill-opacity="1" opacity="1" transform="matrix(1,0,0,1,0,0)">
            <g transform="scale(1)"><g><path d="M49.28 0L53.03-19.39C54.52-27.04 52.88-33.19 44.12-32.55 39.9-32.23 36.65-29.12 34.16-26.57 33.08-31.7 28.74-32.87 25.34-32.55 21.83-32.23 19.22-30.12 16.14-27.3L16.41-32.02 10.08-32.02 3.87 0 11.34 0 15.18-19.86C16.96-22.56 19.48-25.58 23.03-25.87 26.6-26.16 27.36-23.06 26.66-19.45L22.88 0 30.38 0 34.25-20.16C35.89-22.85 38.64-25.66 41.75-25.87 45.5-26.1 46.29-23.17 45.56-19.45L41.78 0ZM64.16-4.19C66.12-1.49 68.55 0.64 72.69 0.64 81.68 0.64 87.57-7.91 89.12-16 90.53-23.29 89.53-32.55 80.07-32.55 75.97-32.55 72.63-30.79 69.29-28.04L72.8-46.23 64.98-43.48 56.48 0.03 63.05 0.03ZM67.88-20.68C69.96-23.64 73.07-25.55 76.46-25.55 81.71-25.55 82.56-21.04 81.62-16.17 80.74-11.75 77.4-6.27 72.71-6.27 69.23-6.27 66.94-8.61 66.18-11.69ZM134.5 0L143.47-46.23 135.59-43.48 132.66-28.39C130.66-31 128.35-32.61 124.89-32.61 114.29-32.61 109.19-22.65 107.72-15.09 106.35-7.97 108.13 0.76 117.69 0.76 121.76 0.76 125.07-1.11 128.53-4.34L127.97 0ZM129.4-11.63C127.32-8.44 124.1-6.15 120.53-6.15 115.72-6.15 114.73-11.07 115.61-15.62 116.57-20.51 119.24-25.61 124.63-25.61 127.91-25.61 130.28-23.61 131.16-20.74ZM170.54-14C170.98-15.64 171.09-15.94 171.18-16.41 172.62-23.96 170.98-32.49 160.96-32.49 151.2-32.49 144.81-24.99 142.85-15 141.42-7.73 143.64 0.82 153.66 0.82 160.4 0.82 164.56-1 169.01-6.74L164.3-10.08C161.07-6.18 158.26-5.6 155.19-5.6 150.76-5.6 148.97-8.7 149.94-14ZM151.26-19.1C152.58-22.85 155.51-25.99 159.32-25.99 163.42-25.99 164.85-23.09 164.47-19.1ZM204.99-32.02L196.82-32.02C196.82-32.02 188.35-15.53 187.47-13.97 187.12-13.33 185.95-10.78 185.48-9.84L185.33-9.84 185.04-14.03C184.95-15.5 182.64-32.02 182.64-32.02L174.49-32.02 180.35 0 186.74 0Z" transform="translate(-3.869999885559082, 46.22999954223633)"></path></g> <!----> <!----> <!----> <!----> <!----> <!----> <!----></g></g> <!----></g></g> <!----></g></g><defs v-gra="od"></defs><mask id="0c71b90f-7796-40ed-aacc-310ba4b94389"><g fill="white"><rect data-gra="graph-name-bg" stroke-width="2" class="i-icon-bg" x="0" y="0" width="221.12001037597656" height="67.04999923706055" rx="10" ry="10"></rect>   </g>
    <g transform="translate(10,10)" fill="black"><g data-gra="path-name" fill-rule="" class="tp-name" fill-opacity="1" opacity="1" transform="matrix(1,0,0,1,0,0)"><g transform="scale(1)"><g><path d="M49.28 0L53.03-19.39C54.52-27.04 52.88-33.19 44.12-32.55 39.9-32.23 36.65-29.12 34.16-26.57 33.08-31.7 28.74-32.87 25.34-32.55 21.83-32.23 19.22-30.12 16.14-27.3L16.41-32.02 10.08-32.02 3.87 0 11.34 0 15.18-19.86C16.96-22.56 19.48-25.58 23.03-25.87 26.6-26.16 27.36-23.06 26.66-19.45L22.88 0 30.38 0 34.25-20.16C35.89-22.85 38.64-25.66 41.75-25.87 45.5-26.1 46.29-23.17 45.56-19.45L41.78 0ZM64.16-4.19C66.12-1.49 68.55 0.64 72.69 0.64 81.68 0.64 87.57-7.91 89.12-16 90.53-23.29 89.53-32.55 80.07-32.55 75.97-32.55 72.63-30.79 69.29-28.04L72.8-46.23 64.98-43.48 56.48 0.03 63.05 0.03ZM67.88-20.68C69.96-23.64 73.07-25.55 76.46-25.55 81.71-25.55 82.56-21.04 81.62-16.17 80.74-11.75 77.4-6.27 72.71-6.27 69.23-6.27 66.94-8.61 66.18-11.69ZM134.5 0L143.47-46.23 135.59-43.48 132.66-28.39C130.66-31 128.35-32.61 124.89-32.61 114.29-32.61 109.19-22.65 107.72-15.09 106.35-7.97 108.13 0.76 117.69 0.76 121.76 0.76 125.07-1.11 128.53-4.34L127.97 0ZM129.4-11.63C127.32-8.44 124.1-6.15 120.53-6.15 115.72-6.15 114.73-11.07 115.61-15.62 116.57-20.51 119.24-25.61 124.63-25.61 127.91-25.61 130.28-23.61 131.16-20.74ZM170.54-14C170.98-15.64 171.09-15.94 171.18-16.41 172.62-23.96 170.98-32.49 160.96-32.49 151.2-32.49 144.81-24.99 142.85-15 141.42-7.73 143.64 0.82 153.66 0.82 160.4 0.82 164.56-1 169.01-6.74L164.3-10.08C161.07-6.18 158.26-5.6 155.19-5.6 150.76-5.6 148.97-8.7 149.94-14ZM151.26-19.1C152.58-22.85 155.51-25.99 159.32-25.99 163.42-25.99 164.85-23.09 164.47-19.1ZM204.99-32.02L196.82-32.02C196.82-32.02 188.35-15.53 187.47-13.97 187.12-13.33 185.95-10.78 185.48-9.84L185.33-9.84 185.04-14.03C184.95-15.5 182.64-32.02 182.64-32.02L174.49-32.02 180.35 0 186.74 0Z" transform="translate(-3.869999885559082, 46.22999954223633)"></path></g>       </g></g> </g>
</mask></svg>