<?xml version="1.0" encoding="UTF-8"?>
<!DOCTYPE svg PUBLIC "-//W3C//DTD SVG 1.1//EN" "http://www.w3.org/Graphics/SVG/1.1/DTD/svg11.dtd">
<svg xmlns="http://www.w3.org/2000/svg" version="1.1" width="8000px" height="4500px" style="shape-rendering:geometricPrecision; text-rendering:geometricPrecision; image-rendering:optimizeQuality; fill-rule:evenodd; clip-rule:evenodd" xmlns:xlink="http://www.w3.org/1999/xlink">
<g><path style="opacity:0.998" fill="#fefffe" d="M 361.5,-0.5 C 625.833,-0.5 890.167,-0.5 1154.5,-0.5C 1154.33,5.17645 1154.5,10.8431 1155,16.5C 1166.56,69.3195 1177.23,122.32 1187,175.5C 1195.48,225.792 1194.14,275.792 1183,325.5C 1166.93,392.872 1128.43,442.705 1067.5,475C 1056.62,480.606 1045.62,485.939 1034.5,491C 1003.39,503.223 972.052,514.889 940.5,526C 868.342,552.491 815.509,600.324 782,669.5C 762.02,718.562 757.52,769.062 768.5,821C 767.766,830.404 763.099,837.07 754.5,841C 720.118,859.409 686.785,879.409 654.5,901C 526.368,1007.13 462.035,1143.96 461.5,1311.5C 461.17,1429.93 502.504,1530.77 585.5,1614C 602.96,1630.78 622.626,1644.45 644.5,1655C 664.861,1664.09 686.195,1668.76 708.5,1669C 729.186,1669.19 749.852,1668.52 770.5,1667C 805.206,1663.7 839.873,1660.03 874.5,1656C 910.842,1652.6 944.842,1659.93 976.5,1678C 1003.24,1692.75 1028.9,1709.09 1053.5,1727C 1120.05,1767.32 1190.72,1776.32 1265.5,1754C 1334.94,1734.18 1388.44,1693.68 1426,1632.5C 1449.64,1589.77 1460.81,1543.94 1459.5,1495C 1458.05,1448.83 1458.22,1402.66 1460,1356.5C 1463.11,1265.39 1502.95,1195.89 1579.5,1148C 1597.67,1137.75 1616.01,1127.75 1634.5,1118C 1689.17,1091.33 1743.83,1064.67 1798.5,1038C 1836.21,1018.93 1871.21,995.931 1903.5,969C 1928.57,946.621 1949.07,920.787 1965,891.5C 1985.78,846.182 1989.44,799.516 1976,751.5C 1962.33,704.233 1938.33,663.233 1904,628.5C 1851.94,575.777 1799.28,523.777 1746,472.5C 1705.42,427.701 1676.42,376.034 1659,317.5C 1647.38,269.747 1635.38,222.081 1623,174.5C 1614.26,143.552 1604.6,112.885 1594,82.5C 1582.46,57.076 1569.13,32.7427 1554,9.5C 1552.21,6.26353 1550.71,2.93019 1549.5,-0.5C 1692.83,-0.5 1836.17,-0.5 1979.5,-0.5C 1972.47,32.5163 1970.3,65.8496 1973,99.5C 1976.01,148.367 1996.51,187.867 2034.5,218C 2081.66,251.743 2127.66,250.41 2172.5,214C 2189.65,195.52 2204.48,175.353 2217,153.5C 2230.34,128.144 2245.67,104.144 2263,81.5C 2296.84,45.6613 2338.34,24.1613 2387.5,17C 2421.71,12.2745 2456.05,11.2745 2490.5,14C 2547.73,20.0476 2605.07,24.2142 2662.5,26.5C 2697.1,26.4801 2730.43,19.9801 2762.5,7C 2767.39,4.72575 2772.05,2.22575 2776.5,-0.5C 3378.83,-0.5 3981.17,-0.5 4583.5,-0.5C 4588.64,28.137 4605.64,44.9703 4634.5,50C 4667.93,57.3174 4701.6,58.984 4735.5,55C 4764.37,46.2929 4784.04,27.7929 4794.5,-0.5C 4851.83,-0.5 4909.17,-0.5 4966.5,-0.5C 4967,24.509 4967.5,49.509 4968,74.5C 4964.2,100.091 4954.87,123.424 4940,144.5C 4903.88,198.624 4857.05,240.79 4799.5,271C 4768.17,286.667 4736.83,302.333 4705.5,318C 4682.23,329.295 4660.57,342.962 4640.5,359C 4576.98,418.575 4556.15,490.742 4578,575.5C 4599.6,641.436 4642.77,686.936 4707.5,712C 4739.56,723.966 4772.56,727.633 4806.5,723C 4823.72,720.356 4840.72,716.69 4857.5,712C 4884.66,702.961 4912.32,695.961 4940.5,691C 4971.67,686.876 5000,693.876 5025.5,712C 5053.87,735.03 5080.37,760.197 5105,787.5C 5132.67,819.833 5160.33,852.167 5188,884.5C 5206.3,904.135 5225.8,922.302 5246.5,939C 5287.23,970.606 5333.4,988.439 5385,992.5C 5463.82,987.35 5512.49,946.35 5531,869.5C 5537.66,842.407 5541.16,814.907 5541.5,787C 5539.43,753.806 5536.93,720.639 5534,687.5C 5531.27,647.114 5533.94,607.114 5542,567.5C 5557.03,501.132 5597.87,460.966 5664.5,447C 5704.65,436.636 5745.32,428.97 5786.5,424C 5871.15,410.462 5937.98,368.962 5987,299.5C 6018.06,249.178 6021.73,196.844 5998,142.5C 5979.49,100.634 5950.32,68.4675 5910.5,46C 5889.25,33.8738 5866.91,24.2072 5843.5,17C 5821.67,11.2954 5800.01,5.46209 5778.5,-0.5C 5969.17,-0.5 6159.83,-0.5 6350.5,-0.5C 6359.56,50.8395 6368.72,102.173 6378,153.5C 6388,214.791 6383,274.791 6363,333.5C 6338.31,393.52 6296.15,436.353 6236.5,462C 6199.17,477 6161.83,492 6124.5,507C 6105.83,514.558 6087.5,522.892 6069.5,532C 6008.55,569.967 5969.72,624.134 5953,694.5C 5944.21,731.042 5944.38,767.542 5953.5,804C 5952.7,812.474 5948.37,818.474 5940.5,822C 5907.34,840.075 5875.01,859.408 5843.5,880C 5747.55,953.737 5685.71,1049.9 5658,1168.5C 5639.78,1243.44 5637.78,1318.77 5652,1394.5C 5671.54,1482.9 5714.7,1557.06 5781.5,1617C 5826.58,1652.8 5877.91,1667.8 5935.5,1662C 5973.78,1657.49 6012.12,1653.49 6050.5,1650C 6074.26,1648.82 6097.93,1649.82 6121.5,1653C 6150.07,1659.62 6176.07,1671.62 6199.5,1689C 6286.85,1763.05 6383.85,1778.39 6490.5,1735C 6582.32,1695.16 6635.82,1625.66 6651,1526.5C 6652.25,1513.86 6653.08,1501.19 6653.5,1488.5C 6652.11,1436.16 6652.28,1383.83 6654,1331.5C 6658.67,1258.31 6689.51,1199.14 6746.5,1154C 6793.4,1121.37 6843.07,1093.03 6895.5,1069C 6946.68,1047.24 6996.35,1022.58 7044.5,995C 7073.64,976.539 7100.48,955.039 7125,930.5C 7184.46,865.186 7198.79,790.853 7168,707.5C 7156.65,679.859 7141.65,654.526 7123,631.5C 7078.53,580.699 7031.03,532.866 6980.5,488C 6943.68,453.115 6912.51,413.948 6887,370.5C 6873.6,346.307 6862.94,320.974 6855,294.5C 6844.05,244.752 6832.72,195.085 6821,145.5C 6808.03,93.917 6788.2,45.2503 6761.5,-0.5C 6899.17,-0.5 7036.83,-0.5 7174.5,-0.5C 7173.37,16.8231 7172.37,34.1565 7171.5,51.5C 7171.22,95.5062 7184.39,134.84 7211,169.5C 7236,198.501 7267.67,214.168 7306,216.5C 7331.19,215.644 7353.36,207.144 7372.5,191C 7380.4,183.766 7387.57,175.933 7394,167.5C 7412,140.166 7429,112.166 7445,83.5C 7466.78,47.3839 7496.95,20.8839 7535.5,4C 7537.04,2.62879 7538.37,1.12879 7539.5,-0.5C 7692.83,-0.5 7846.17,-0.5 7999.5,-0.5C 7999.5,85.8333 7999.5,172.167 7999.5,258.5C 7904.19,254.386 7811.85,268.886 7722.5,302C 7671.83,320.734 7627.33,348.9 7589,386.5C 7543.1,437.82 7518.43,498.153 7515,567.5C 7513.41,592.825 7513.41,618.159 7515,643.5C 7518.17,698.559 7522.17,753.559 7527,808.5C 7531.22,860.905 7526.88,912.572 7514,963.5C 7511.54,971.895 7508.87,980.228 7506,988.5C 7488.75,1029.26 7472.08,1070.26 7456,1111.5C 7436.17,1175.07 7452.01,1227.57 7503.5,1269C 7556.66,1305.51 7615.33,1318.84 7679.5,1309C 7734.99,1301.5 7786.99,1283.84 7835.5,1256C 7846.67,1249.58 7857.67,1242.92 7868.5,1236C 7912.22,1207.15 7955.89,1178.31 7999.5,1149.5C 7999.5,1255.5 7999.5,1361.5 7999.5,1467.5C 7990.73,1471.38 7982.07,1475.55 7973.5,1480C 7919.48,1512.51 7863.82,1542.18 7806.5,1569C 7765.86,1586.77 7723.53,1598.43 7679.5,1604C 7633.08,1608.97 7592.08,1596.63 7556.5,1567C 7515.03,1542.27 7471.7,1521.27 7426.5,1504C 7380.85,1487.53 7333.85,1480.86 7285.5,1484C 7203.69,1491.98 7148.53,1534.48 7120,1611.5C 7099.75,1666.01 7095.75,1721.68 7108,1778.5C 7126.36,1868.64 7145.36,1958.64 7165,2048.5C 7173.11,2092.83 7170.44,2136.5 7157,2179.5C 7140.06,2227 7122.72,2274.33 7105,2321.5C 7085.21,2402.72 7110.04,2466.22 7179.5,2512C 7215.1,2533.54 7253.43,2548.2 7294.5,2556C 7312.39,2559.65 7330.39,2562.65 7348.5,2565C 7384.22,2568.9 7419.89,2573.23 7455.5,2578C 7509.58,2585.46 7559.25,2604.13 7604.5,2634C 7616.79,2643.29 7628.79,2652.95 7640.5,2663C 7683.04,2691.31 7729.37,2699.97 7779.5,2689C 7814.38,2681.23 7845.04,2665.56 7871.5,2642C 7915.25,2601.52 7945.08,2552.35 7961,2494.5C 7964.54,2482.22 7967.87,2469.89 7971,2457.5C 7980.08,2412.94 7989.58,2368.61 7999.5,2324.5C 7999.5,2540.17 7999.5,2755.83 7999.5,2971.5C 7947.72,3011.55 7919.72,3064.39 7915.5,3130C 7917.54,3179.57 7935.38,3222.4 7969,3258.5C 7978.54,3268.33 7988.71,3277.33 7999.5,3285.5C 7999.5,3690.17 7999.5,4094.83 7999.5,4499.5C 7981.17,4499.5 7962.83,4499.5 7944.5,4499.5C 7932.51,4482.66 7919.17,4466.83 7904.5,4452C 7858.58,4413.02 7807.24,4382.69 7750.5,4361C 7726.21,4351.84 7701.21,4349.17 7675.5,4353C 7652.62,4357.36 7633.79,4368.52 7619,4386.5C 7611.55,4395.96 7604.88,4405.96 7599,4416.5C 7584.94,4443.95 7571.44,4471.61 7558.5,4499.5C 7338.5,4499.5 7118.5,4499.5 6898.5,4499.5C 6892.96,4484.08 6887.12,4468.74 6881,4453.5C 6874.08,4431.65 6869.41,4409.32 6867,4386.5C 6863.93,4359.51 6860.93,4332.51 6858,4305.5C 6849.62,4251.51 6824.12,4207.68 6781.5,4174C 6726.05,4133.63 6664.05,4109.3 6595.5,4101C 6581.87,4099.25 6568.21,4097.91 6554.5,4097C 6506.83,4095.76 6459.16,4094.42 6411.5,4093C 6386.28,4092.26 6361.28,4089.59 6336.5,4085C 6281.5,4071.65 6240,4040.48 6212,3991.5C 6195.95,3958 6180.28,3924.34 6165,3890.5C 6112.6,3781.85 6026.1,3721.01 5905.5,3708C 5806.1,3697.76 5717.1,3723.09 5638.5,3784C 5582.31,3827.83 5537.48,3881 5504,3943.5C 5481.31,3988.57 5459.98,4034.24 5440,4080.5C 5418.58,4128.39 5390.91,4172.06 5357,4211.5C 5339.98,4229.53 5321.48,4245.7 5301.5,4260C 5246.5,4295.84 5190.5,4330.17 5133.5,4363C 5098.16,4384.66 5065.99,4410.49 5037,4440.5C 5020.91,4458.42 5007.41,4478.08 4996.5,4499.5C 4873.5,4499.5 4750.5,4499.5 4627.5,4499.5C 4614.25,4459.74 4587.91,4432.58 4548.5,4418C 4525.34,4410.86 4501.68,4406.2 4477.5,4404C 4433.57,4399.78 4389.57,4396.45 4345.5,4394C 4287.5,4390.11 4234.5,4372.11 4186.5,4340C 4175.54,4331.38 4164.87,4322.38 4154.5,4313C 4115.21,4275.05 4077.38,4235.88 4041,4195.5C 4015.14,4167.96 3986.64,4143.79 3955.5,4123C 3860.75,4065.98 3758.08,4041.65 3647.5,4050C 3603.54,4051.88 3560.87,4060.22 3519.5,4075C 3439.96,4108.55 3385.79,4166.05 3357,4247.5C 3347.93,4274.1 3340.27,4301.1 3334,4328.5C 3322.76,4370.98 3304.09,4409.64 3278,4444.5C 3258.9,4467.26 3236.4,4485.59 3210.5,4499.5C 3055.17,4499.5 2899.83,4499.5 2744.5,4499.5C 2739.99,4474.65 2728.33,4453.82 2709.5,4437C 2658.51,4399.15 2604.51,4365.82 2547.5,4337C 2523.71,4327.51 2499.05,4324.17 2473.5,4327C 2444.55,4331.55 2422.05,4346.05 2406,4370.5C 2393.98,4390.53 2382.98,4411.2 2373,4432.5C 2362.82,4454.85 2352.65,4477.19 2342.5,4499.5C 2136.17,4499.5 1929.83,4499.5 1723.5,4499.5C 1702.65,4474.14 1687.82,4445.47 1679,4413.5C 1673.17,4367.49 1667.17,4321.49 1661,4275.5C 1648.91,4213.77 1616.08,4166.6 1562.5,4134C 1501.2,4097.79 1434.87,4078.13 1363.5,4075C 1319.5,4073.67 1275.5,4072.33 1231.5,4071C 1211.8,4070.15 1192.13,4068.82 1172.5,4067C 1113.7,4061.37 1067.53,4034.53 1034,3986.5C 1014.76,3952.14 997.431,3916.81 982,3880.5C 930.368,3766.94 842.202,3703.44 717.5,3690C 639.442,3681.74 566.776,3697.74 499.5,3738C 436.855,3775.31 386.021,3824.81 347,3886.5C 318.401,3935.7 292.401,3986.36 269,4038.5C 250.857,4075.46 231.191,4111.46 210,4146.5C 193.824,4172.35 174.324,4195.52 151.5,4216C 124.58,4238.46 95.9138,4258.46 65.5,4276C 43.6337,4288.43 21.6337,4300.6 -0.5,4312.5C -0.5,4208.5 -0.5,4104.5 -0.5,4000.5C 11.2409,3978.02 22.7409,3955.35 34,3932.5C 39.3213,3920.87 43.6546,3908.87 47,3896.5C 53.9654,3866.64 60.2987,3836.64 66,3806.5C 78.2358,3737.09 90.9024,3667.75 104,3598.5C 112.147,3560.88 127.814,3526.88 151,3496.5C 159.869,3485.96 169.702,3476.46 180.5,3468C 197.642,3454.93 215.309,3442.59 233.5,3431C 271.333,3408.25 309,3385.25 346.5,3362C 390.797,3331.35 421.964,3290.51 440,3239.5C 462.529,3175.29 461.862,3111.29 438,3047.5C 425.725,3010.75 406.225,2978.59 379.5,2951C 359.186,2932.34 335.519,2919.67 308.5,2913C 205.524,2886.34 102.524,2859.84 -0.5,2833.5C -0.5,2733.17 -0.5,2632.83 -0.5,2532.5C 116.891,2545.24 211.391,2505.24 283,2412.5C 343.807,2330.16 364.473,2238.5 345,2137.5C 335.168,2089 319.168,2042.67 297,1998.5C 275.124,1956.08 253.791,1913.41 233,1870.5C 208.769,1815.01 197.769,1757.01 200,1696.5C 203.917,1659.5 207.917,1622.5 212,1585.5C 214.592,1559.89 216.425,1534.22 217.5,1508.5C 217.623,1441.24 190.623,1388.07 136.5,1349C 91.7131,1320.39 46.0465,1293.22 -0.5,1267.5C -0.5,1141.83 -0.5,1016.17 -0.5,890.5C 16.3722,907.021 33.3722,923.521 50.5,940C 87.9366,973.886 131.603,995.886 181.5,1006C 235.595,1014.41 281.095,998.581 318,958.5C 342.883,922.86 356.883,883.193 360,839.5C 360.844,829.35 361.344,819.184 361.5,809C 359.302,772.483 356.802,735.983 354,699.5C 351.934,662.149 354.601,625.149 362,588.5C 377.445,522.723 418.278,482.889 484.5,469C 495.463,466.176 506.463,463.509 517.5,461C 554.188,454.759 590.855,448.426 627.5,442C 686.428,427.466 736.928,398.633 779,355.5C 832.622,292.242 840.622,223.576 803,149.5C 781.313,115.481 752.813,88.6479 717.5,69C 668.686,43.4623 616.686,29.7957 561.5,28C 522.176,26.8646 482.843,26.1979 443.5,26C 423.295,26.3467 403.629,23.3467 384.5,17C 375.512,12.8376 367.845,7.0043 361.5,-0.5 Z M 3544.5,17.5 C 3586.88,16.8392 3628.55,22.0058 3669.5,33C 3713.59,44.355 3757.59,56.0216 3801.5,68C 3862.16,82.9315 3923.49,94.2648 3985.5,102C 4022.94,105.411 4060.28,109.744 4097.5,115C 4217.03,137.34 4279.7,209.34 4285.5,331C 4281.59,411.862 4244.26,471.529 4173.5,510C 4162.62,515.274 4151.62,520.274 4140.5,525C 4093.65,542.394 4046.65,559.394 3999.5,576C 3961.4,590.215 3924.4,606.882 3888.5,626C 3848.89,647.605 3818.73,678.438 3798,718.5C 3785.2,744.1 3775.2,770.767 3768,798.5C 3752.14,862.956 3735.8,927.289 3719,991.5C 3710.72,1027.04 3696.72,1060.04 3677,1090.5C 3618.84,1169.55 3542.68,1194.38 3448.5,1165C 3440.17,1162 3431.83,1159 3423.5,1156C 3376.92,1135.92 3330.58,1115.25 3284.5,1094C 3129.43,1027.87 2980.77,1039.87 2838.5,1130C 2794.82,1158.5 2751.49,1187.5 2708.5,1217C 2682.43,1234.06 2656.1,1250.73 2629.5,1267C 2586.76,1293.03 2540.76,1310.7 2491.5,1320C 2441.05,1328.35 2391.72,1324.01 2343.5,1307C 2286.22,1284.73 2253.06,1243.23 2244,1182.5C 2243.45,1158.6 2247.78,1135.6 2257,1113.5C 2268.75,1083.92 2281.08,1054.59 2294,1025.5C 2318.22,963.771 2327.88,899.771 2323,833.5C 2318.34,777.547 2314.34,721.547 2311,665.5C 2308.06,628.003 2309.39,590.669 2315,553.5C 2333.06,458.808 2384.9,389.641 2470.5,346C 2530.2,317.768 2592.87,299.435 2658.5,291C 2723.6,283.163 2788.93,279.997 2854.5,281.5C 2854.5,283.5 2854.5,285.5 2854.5,287.5C 2930.33,281.652 3005.99,274.152 3081.5,265C 3173.32,255.17 3250.82,217.004 3314,150.5C 3336.12,124.044 3359.96,99.2106 3385.5,76C 3421.15,47.2061 3461.82,29.2061 3507.5,22C 3519.94,20.1559 3532.28,18.6559 3544.5,17.5 Z M 4409.5,795.5 C 4483.95,792.653 4545.79,818.987 4595,874.5C 4620.03,904.87 4647.2,933.37 4676.5,960C 4720,997.708 4770,1010.37 4826.5,998C 4841.74,993.356 4857.08,989.022 4872.5,985C 4906.12,976.687 4938.12,980.687 4968.5,997C 4977.63,1003.8 4985.8,1011.63 4993,1020.5C 5029.66,1072.47 5065.32,1125.14 5100,1178.5C 5128.93,1217.77 5164.43,1249.6 5206.5,1274C 5246.93,1293.82 5285.26,1316.82 5321.5,1343C 5372.49,1384.83 5397.82,1439 5397.5,1505.5C 5394.56,1558.16 5388.72,1610.49 5380,1662.5C 5372.92,1734.38 5383.92,1803.38 5413,1869.5C 5419,1882.17 5425,1894.83 5431,1907.5C 5459.09,1956.34 5483.42,2007 5504,2059.5C 5527.02,2121.62 5535.35,2185.62 5529,2251.5C 5519.51,2321.81 5491.17,2383.14 5444,2435.5C 5350.72,2535.28 5239.56,2562.11 5110.5,2516C 5043.13,2488.65 4976.47,2459.65 4910.5,2429C 4881.34,2418.69 4851.34,2415.02 4820.5,2418C 4793.29,2420.6 4766.29,2424.6 4739.5,2430C 4694.26,2439.18 4648.93,2447.85 4603.5,2456C 4467.38,2477.06 4335.38,2462.06 4207.5,2411C 4135.34,2380.79 4070.34,2339.79 4012.5,2288C 3977.25,2256.09 3949.75,2218.59 3930,2175.5C 3909.07,2123.35 3902.07,2069.35 3909,2013.5C 3919.64,1947.68 3953.14,1897.18 4009.5,1862C 4046.44,1841.7 4081.78,1819.03 4115.5,1794C 4155.61,1757.38 4174.95,1711.71 4173.5,1657C 4172.52,1609.43 4162.35,1563.93 4143,1520.5C 4134.39,1500.61 4124.72,1481.28 4114,1462.5C 4090.5,1422.83 4066.5,1383.5 4042,1344.5C 4025.69,1316.22 4010.69,1287.22 3997,1257.5C 3953.77,1157.78 3966.77,1066.45 4036,983.5C 4105.34,906.206 4189.51,851.373 4288.5,819C 4328.18,807.057 4368.51,799.224 4409.5,795.5 Z M 3031.5,1391.5 C 3076.93,1391.43 3121.59,1397.26 3165.5,1409C 3292.91,1438.38 3408.24,1492.38 3511.5,1571C 3537.5,1590.33 3559.34,1613.5 3577,1640.5C 3590.93,1664.3 3599.26,1689.96 3602,1717.5C 3608.15,1773.55 3595.49,1824.88 3564,1871.5C 3530.9,1918.6 3489.07,1955.77 3438.5,1983C 3412.33,1996.92 3385.33,2008.92 3357.5,2019C 3334.23,2026.87 3310.9,2034.53 3287.5,2042C 3194.74,2069.69 3102.07,2097.69 3009.5,2126C 2959.36,2143.4 2913.36,2168.06 2871.5,2200C 2822.4,2240.65 2791.57,2292.49 2779,2355.5C 2773.71,2395.55 2766.38,2435.22 2757,2474.5C 2741.66,2538.39 2710.49,2592.89 2663.5,2638C 2612.6,2682.62 2553.93,2697.62 2487.5,2683C 2478.15,2679.82 2469.15,2675.82 2460.5,2671C 2426.16,2649.83 2391.5,2629.16 2356.5,2609C 2331.02,2593.92 2303.68,2583.92 2274.5,2579C 2222.66,2570.55 2170.66,2563.21 2118.5,2557C 2056.78,2549.95 2001.78,2527.28 1953.5,2489C 1909.9,2450.87 1892.4,2403.03 1901,2345.5C 1902.7,2334.7 1905.03,2324.03 1908,2313.5C 1918.94,2282.68 1930.27,2252.01 1942,2221.5C 1952.85,2190.76 1961.52,2159.43 1968,2127.5C 1971.69,2095.07 1969.36,2063.07 1961,2031.5C 1949.14,1977.73 1936.81,1924.06 1924,1870.5C 1914.76,1833.62 1908.09,1796.29 1904,1758.5C 1898.81,1705.65 1906.15,1654.65 1926,1605.5C 1956.96,1539.07 2009.12,1502.24 2082.5,1495C 2133.86,1490.05 2183.52,1497.05 2231.5,1516C 2283.82,1537.15 2333.15,1563.49 2379.5,1595C 2405.01,1609.17 2432.35,1615.17 2461.5,1613C 2502.97,1609.97 2542.97,1600.63 2581.5,1585C 2609.35,1573.08 2636.68,1560.08 2663.5,1546C 2749.72,1497.72 2838.06,1453.39 2928.5,1413C 2961.81,1400.24 2996.14,1393.07 3031.5,1391.5 Z M 6594.5,2162.5 C 6644.65,2160.04 6686.82,2177.04 6721,2213.5C 6738.58,2234.65 6750.91,2258.65 6758,2285.5C 6771.11,2332.84 6774.11,2380.84 6767,2429.5C 6758.28,2479.9 6751.61,2530.57 6747,2581.5C 6746.33,2602.17 6746.33,2622.83 6747,2643.5C 6751.39,2727.81 6791.89,2786.98 6868.5,2821C 6885.68,2827.39 6903.02,2833.39 6920.5,2839C 6964.88,2851.51 7009.21,2864.18 7053.5,2877C 7101.26,2891.36 7147.26,2910.03 7191.5,2933C 7232.07,2954.55 7268.24,2982.05 7300,3015.5C 7360.88,3088.35 7380.21,3171.01 7358,3263.5C 7342.13,3316.36 7308.97,3353.86 7258.5,3376C 7248.72,3380.22 7238.72,3383.89 7228.5,3387C 7186.39,3397.93 7144.39,3409.26 7102.5,3421C 7054.78,3440.05 7018.28,3471.89 6993,3516.5C 6968.41,3567.35 6944.08,3618.35 6920,3669.5C 6866.56,3768.79 6785.06,3803.96 6675.5,3775C 6625.52,3758.68 6579.52,3735.01 6537.5,3704C 6524.5,3693.67 6511.5,3683.33 6498.5,3673C 6429.65,3608.48 6359.32,3545.81 6287.5,3485C 6227.39,3440.14 6160.06,3422.47 6085.5,3432C 6055.44,3438.02 6025.44,3444.35 5995.5,3451C 5973.31,3455.48 5950.97,3456.48 5928.5,3454C 5893.52,3446.43 5869.69,3425.93 5857,3392.5C 5852.85,3379.43 5849.85,3366.1 5848,3352.5C 5844.71,3328.87 5841.71,3305.2 5839,3281.5C 5838.75,3199.1 5855.75,3120.43 5890,3045.5C 5905.56,3011.33 5923.56,2978.66 5944,2947.5C 5971.19,2910.49 5994.85,2871.16 6015,2829.5C 6037.96,2773.49 6040.63,2716.49 6023,2658.5C 6018.12,2643.19 6012.45,2628.19 6006,2613.5C 5982.39,2561.95 5959.06,2510.29 5936,2458.5C 5920.24,2422.8 5911.74,2385.47 5910.5,2346.5C 5910.01,2284.63 5935.35,2236.79 5986.5,2203C 6023.86,2180.5 6061.53,2179.84 6099.5,2201C 6117.34,2213.09 6135.01,2225.42 6152.5,2238C 6195.73,2265.26 6242.06,2272.26 6291.5,2259C 6373.05,2233.6 6454.05,2206.6 6534.5,2178C 6554.34,2171.65 6574.34,2166.49 6594.5,2162.5 Z M 1397.5,2165.5 C 1481.96,2162.46 1536.8,2201.13 1562,2281.5C 1574.86,2327.09 1578.53,2373.42 1573,2420.5C 1563.37,2482.84 1557.04,2545.5 1554,2608.5C 1549.61,2652.15 1557.27,2693.48 1577,2732.5C 1598.81,2768.67 1628.98,2795.5 1667.5,2813C 1681.51,2819.17 1695.84,2824.5 1710.5,2829C 1760.7,2844.13 1811.03,2858.8 1861.5,2873C 1903.88,2885.13 1944.88,2900.79 1984.5,2920C 2051.3,2953.13 2102.8,3002.3 2139,3067.5C 2176.17,3143.79 2175.51,3219.79 2137,3295.5C 2117.9,3326.59 2091.4,3349.09 2057.5,3363C 2046.37,3367.56 2035.04,3371.56 2023.5,3375C 1983.24,3384.73 1943.24,3395.4 1903.5,3407C 1863.12,3422.94 1830.62,3448.77 1806,3484.5C 1801,3492.5 1796,3500.5 1791,3508.5C 1767.05,3559.67 1742.72,3610.67 1718,3661.5C 1664.3,3753.41 1585.8,3785.24 1482.5,3757C 1433.89,3741.69 1389.22,3719.03 1348.5,3689C 1336.17,3679.33 1323.83,3669.67 1311.5,3660C 1268.83,3620.67 1226.17,3581.33 1183.5,3542C 1158.09,3519.25 1132.09,3497.25 1105.5,3476C 1034.33,3419.55 954.328,3401.88 865.5,3423C 832.264,3434.31 798.097,3440.48 763,3441.5C 719.374,3440.37 689.374,3419.7 673,3379.5C 668.851,3365.75 665.851,3351.75 664,3337.5C 660.781,3313.53 657.781,3289.53 655,3265.5C 656.489,3168.88 680.489,3078.21 727,2993.5C 742.753,2965.1 760.087,2937.76 779,2911.5C 796.263,2884.65 812.263,2856.98 827,2828.5C 856.442,2757.81 855.442,2687.48 824,2617.5C 799.418,2564.75 775.418,2511.75 752,2458.5C 736.161,2422.64 727.328,2385.14 725.5,2346C 725.576,2284.16 751.243,2236.49 802.5,2203C 832.545,2184.94 863.545,2182.94 895.5,2197C 926.467,2212.14 956.467,2228.81 985.5,2247C 1023.55,2267.7 1063.55,2272.36 1105.5,2261C 1117.3,2258.13 1128.97,2254.8 1140.5,2251C 1202.72,2227.39 1265.06,2204.06 1327.5,2181C 1350.48,2173.58 1373.81,2168.42 1397.5,2165.5 Z M 3449.5,2223.5 C 3546.56,2217.45 3621.39,2254.78 3674,2335.5C 3681.17,2347.18 3687.84,2359.18 3694,2371.5C 3713.29,2413.37 3732.95,2455.04 3753,2496.5C 3785.14,2549.97 3826.97,2594.47 3878.5,2630C 3933,2665.08 3987.34,2700.42 4041.5,2736C 4090.47,2768.3 4132.3,2808.13 4167,2855.5C 4219.31,2929.1 4225.98,3006.77 4187,3088.5C 4170.25,3120.35 4151.25,3150.68 4130,3179.5C 4104.48,3213.2 4078.48,3246.53 4052,3279.5C 4018.05,3327.03 3988.38,3377.37 3963,3430.5C 3943.99,3476.51 3922.33,3521.18 3898,3564.5C 3883.97,3590.87 3865.8,3614.04 3843.5,3634C 3804.39,3664.87 3759.72,3679.7 3709.5,3678.5C 3674.5,3676.78 3639.5,3674.94 3604.5,3673C 3478.25,3666.73 3375.42,3712.23 3296,3809.5C 3277.1,3835.74 3257.43,3861.4 3237,3886.5C 3226.8,3898.37 3215.63,3909.2 3203.5,3919C 3165.45,3944.75 3126.45,3946.08 3086.5,3923C 3030.41,3886.38 2997.91,3834.55 2989,3767.5C 2985.22,3740.25 2982.22,3712.92 2980,3685.5C 2979.96,3633.48 2979.29,3581.48 2978,3529.5C 2971.9,3483.85 2954.9,3442.85 2927,3406.5C 2910.97,3386.46 2893.47,3367.63 2874.5,3350C 2833.9,3317.08 2795.4,3281.58 2759,3243.5C 2703.54,3184.73 2691.87,3118.07 2724,3043.5C 2734.26,3022.26 2747.26,3002.92 2763,2985.5C 2795.23,2951 2831.73,2922.17 2872.5,2899C 2913.03,2876.57 2954.03,2854.9 2995.5,2834C 3019.43,2820.4 3043.09,2806.4 3066.5,2792C 3123.67,2755.8 3162.5,2705.3 3183,2640.5C 3187.14,2626.96 3190.8,2613.29 3194,2599.5C 3201.44,2558.52 3208.77,2517.52 3216,2476.5C 3221.05,2448.96 3227.05,2421.62 3234,2394.5C 3261.06,2304.44 3320.56,2249.28 3412.5,2229C 3424.92,2226.74 3437.25,2224.91 3449.5,2223.5 Z M 4718.5,2644.5 C 4739.29,2643.31 4759.62,2645.81 4779.5,2652C 4829.8,2666.49 4877.8,2686.49 4923.5,2712C 4971.91,2740.73 5020.57,2769.07 5069.5,2797C 5110.28,2819.04 5152.94,2836.37 5197.5,2849C 5302.03,2870.3 5405.37,2896.3 5507.5,2927C 5542.6,2941.1 5570.1,2964.27 5590,2996.5C 5607.94,3025.98 5620.61,3057.65 5628,3091.5C 5632.31,3112.22 5636.81,3132.89 5641.5,3153.5C 5640.15,3154.95 5638.48,3155.62 5636.5,3155.5C 5636.39,3248.56 5599.05,3322.4 5524.5,3377C 5513.67,3384.25 5502.67,3391.25 5491.5,3398C 5448.33,3421.07 5406.67,3446.41 5366.5,3474C 5323.3,3509.53 5295.13,3554.7 5282,3609.5C 5267.32,3691.89 5252.32,3774.22 5237,3856.5C 5226.97,3912.58 5208.97,3965.91 5183,4016.5C 5143.73,4089.1 5086.9,4143.27 5012.5,4179C 4991.32,4187.73 4969.65,4195.06 4947.5,4201C 4854.22,4200.61 4764.22,4183.28 4677.5,4149C 4628.72,4129.11 4581.05,4106.78 4534.5,4082C 4493.9,4065.02 4451.9,4052.68 4408.5,4045C 4377.54,4040.05 4346.54,4035.39 4315.5,4031C 4269.89,4024.8 4226.89,4010.8 4186.5,3989C 4152.96,3968.8 4124.46,3942.96 4101,3911.5C 4061.46,3852.71 4053.13,3789.71 4076,3722.5C 4085.83,3697.83 4098.5,3674.83 4114,3653.5C 4149.2,3606.96 4188.7,3564.13 4232.5,3525C 4272.54,3490.62 4312.87,3456.62 4353.5,3423C 4402.18,3381.33 4446.34,3335.49 4486,3285.5C 4524.77,3232.56 4547.43,3173.23 4554,3107.5C 4556.33,3085.4 4557.5,3063.23 4557.5,3041C 4555.98,2991.18 4554.98,2941.34 4554.5,2891.5C 4554.51,2865.49 4555.01,2839.49 4556,2813.5C 4557.34,2776.8 4569.34,2744.13 4592,2715.5C 4625.19,2675.81 4667.35,2652.14 4718.5,2644.5 Z M 2383.5,3532.5 C 2433.72,3534.3 2480.39,3548.13 2523.5,3574C 2563.88,3596.96 2600.38,3625.13 2633,3658.5C 2668.86,3696.86 2693.86,3741.52 2708,3792.5C 2711.67,3808.83 2715.33,3825.17 2719,3841.5C 2715.05,3928.03 2676.21,3993.53 2602.5,4038C 2575.35,4053.04 2546.35,4062.37 2515.5,4066C 2455.86,4071.33 2396.19,4076.33 2336.5,4081C 2304.08,4086.58 2274.08,4098.25 2246.5,4116C 2235.89,4122.94 2225.56,4130.28 2215.5,4138C 2182.79,4166.38 2149.79,4194.38 2116.5,4222C 2076.08,4250.48 2031.74,4259.48 1983.5,4249C 1961.47,4244.25 1943.64,4233.08 1930,4215.5C 1922.36,4202.02 1920.03,4187.69 1923,4172.5C 1934.98,4142.22 1945.98,4111.56 1956,4080.5C 1969.39,4031.92 1981.06,3982.92 1991,3933.5C 2005.98,3879.22 2028.31,3828.22 2058,3780.5C 2091.07,3726.07 2130.23,3676.24 2175.5,3631C 2201.82,3605.68 2230.82,3584.01 2262.5,3566C 2300.26,3544.98 2340.59,3533.81 2383.5,3532.5 Z M 7572.5,3548.5 C 7622.81,3546.41 7670.14,3557.24 7714.5,3581C 7762.76,3606.58 7805.93,3639.08 7844,3678.5C 7891.24,3731.5 7919.41,3793.33 7928.5,3864C 7927.21,3864.49 7925.87,3864.66 7924.5,3864.5C 7920.71,3959.3 7876.37,4027.46 7791.5,4069C 7757.37,4083.56 7721.7,4091.23 7684.5,4092C 7640.17,4095.38 7595.84,4098.71 7551.5,4102C 7508.32,4107.5 7469.32,4123.17 7434.5,4149C 7399.95,4176.54 7366.28,4205.21 7333.5,4235C 7293.68,4265.5 7248.68,4280.16 7198.5,4279C 7171.76,4274.39 7149.6,4261.89 7132,4241.5C 7120.57,4224.85 7117.91,4206.85 7124,4187.5C 7144.05,4142 7159.72,4095 7171,4046.5C 7177.74,4014.78 7184.74,3983.11 7192,3951.5C 7214.11,3876.94 7248.11,3808.61 7294,3746.5C 7320.13,3709.35 7349.63,3674.85 7382.5,3643C 7415.06,3612.38 7451.73,3587.71 7492.5,3569C 7518.25,3558.06 7544.92,3551.23 7572.5,3548.5 Z"/></g>
</svg>
